<svg xmlns="http://www.w3.org/2000/svg"><metadata></metadata><defs><font id="droid_sansregular" horiz-adv-x="1128">
<font-face units-per-em="2048" ascent="1638" descent="-410"></font-face><missing-glyph horiz-adv-x="532"></missing-glyph><glyph horiz-adv-x="2048"></glyph><glyph horiz-adv-x="2048"></glyph><glyph unicode="" horiz-adv-x="1044"></glyph><glyph unicode=" " horiz-adv-x="532"></glyph><glyph unicode="	" horiz-adv-x="532"></glyph><glyph unicode="&#160;" horiz-adv-x="532"></glyph><glyph unicode="!" horiz-adv-x="551" d="v 5571h 984M147 111q0 38 10 64.5t27 43t40 24t50 7.5q26 0 49.5 -7.5t40.5 -24t27 -43t10 -64.5q0 -37 -10 -63.5t-27 -43.5t-40.5 -25t-49.5 -8q-27 0 -50 8t-40 25t-27 43.5t-10 63.5zM164 1462h223l-51 -1048h-121z"></glyph><glyph unicode='"' horiz-adv-x="823" d="M133 1462h197l-41 -528h-115zM494 1462h196l-41 -528h-114z"></glyph><glyph unicode="#" horiz-adv-x="1323" d="M51 428v137h285l65 328h-274v137h299l82 432h147l-82 -432h293l84 432h144l-84 -432h262v-137h-289l-63 -328h280v-137h-307l-82 -428h-147l84 428h-291l-82 -428h-144l78 428h-258zM483 565h291l64 328h-291zv 3041h 1863v 293h 5053v -2412h -4074v -987h 4232v 3853h 1261v 1066h 5759v 310h 3081v -2779h -297"></glyph><glyph unicode="$" d="M123 172h172q33 -16 76.5 -32.5t91.5 -29.5t98.5 -21.5t97.5 -8.5v434q-89 30 -154.5 63t-108.5 75.5t-64 97.5t-21 129q0 67 24.5 122.5t70 97t110 68t143.5 35.5v180h138h-176q100 -5 184.5 -26t151.5 -52l-66 -145q-56 25 -126 45.5t-144 26.5h-422q88 -31 155.5 -64 t113 -74.5t68.5 -95t23 -125.5q0 -70 -25 -127t-71.5 -99t-113 -69.5t-150.5 -39.5v-230h-138h221q-50 0 -101 4.5t-99 13.5t-90 22t-74 30zM315 1049q0 -36 8.5 -64.5t28.5 -52t53 -42.5t82 -36h369q-89 -16 -130.5 -60.5t-41.5 -113.5zM625 262q93 14 138.5 63t45.5 121 q0 33 -10 60.5t-31.5 50t-56.5 41.5t-86 37v-373zv 5226h 6059v 1032h 826v -393h 3929v 3961h -3993v -4001h 1176v 6070h -1304v 5622h 2666v 1481h -3518"></glyph><glyph unicode="%" horiz-adv-x="1690" d="M102 1026q0 108 17.5 193t54 143.5t93 89.5t134.5 31q75 0 131.5 -31t95 -89.5t58 -143.5t19.5 -193t-18 -194t-55 -145t-94.5 -90.5t-136.5 -31.5q-73 0 -129 31.5t-94 90.5t-57 145t-19 194zM250 1026q0 -165 35.5 -247.5t115.5 -82.5q156 0 156 330q0 328 -156 328 q-80 0 -115.5 -81.5t-35.5 -246.5zM362 0l812 1462h157l-811 -1462h-158zM985 440q0 108 17.5 193t54 143.5t93 89.5t134.5 31q75 0 131.5 -31t94.5 -89.5t57.5 -143.5t19.5 -193t-17.5 -193.5t-54.5 -144.5t-94.5 -90.5t-136.5 -31.5q-74 0 -130 31.5t-93.5 90.5 t-56.5 144.5t-19 193.5zM1133 440q0 -165 35.5 -247t115.5 -82q156 0 156 329q0 328 -156 328q-80 0 -115.5 -81.5t-35.5 -246.5z"></glyph><glyph unicode="&amp;" horiz-adv-x="1438" d="M109 381q0 78 20 139t58.5 111t94 93t126.5 85q-31 36 -61 74.5t-52.5 82t-36.5 93t-14 106.5q0 75 25 134.5t72 101t116 63t157 21.5q83 0 148.5 -21.5t111 -63t69.5 -101t24 -134.5q0 -64 -25 -118.5t-67 -101t-96.5 -86t-114.5 -75.5l352 -372q27 29 48.5 59t38.5 64 t30.5 73t23.5 86h184q-15 -66 -35.5 -121.5t-47 -104.5t-59 -91.5t-71.5 -83.5l277 -293h-225l-168 172q-49 -45 -97 -80.5t-102 -60t-116 -38t-140 -13.5q-105 0 -188.5 26.5t-141 78t-88 126t-30.5 170.5zM299 387q0 -54 17.5 -99.5t50.5 -78t81 -50.5t109 -18 q58 0 107 11.5t91 31.5t78 47t68 58l-387 407q-52 -33 -92 -64.5t-67.5 -67.5t-41.5 -78.5t-14 -98.5zM422 1165q0 -34 8 -66.5t24.5 -65t42.5 -66t62 -70.5q59 35 102 66t71 63t42 67t14 76q0 36 -12.5 66.5t-36 52.5t-56.5 34.5t-75 12.5q-86 0 -136 -44.5t-50 -125.5z v 5415h -1325v 1033h -2455v -3048h -3497v 1084h 1227v -3140h -3684v -2696h -286v -998h -2224v 519h -4047v 1634h 5126"></glyph><glyph unicode="'" horiz-adv-x="463" d="v 6093h -3582v -1360h 1592v -665h 2301M133 1462h197l-41 -528h-115z"></glyph><glyph unicode="(" horiz-adv-x="616" d="M82 561q0 125 18 246.5t55 236t93.5 220t134.5 198.5h172q-140 -193 -212.5 -424t-72.5 -475q0 -119 18.5 -237t54 -231t88.5 -219t122 -200h-170q-78 90 -134.5 193t-93.5 215.5t-55 232.5t-18 244z"></glyph><glyph unicode=")" horiz-adv-x="616" d="M61 1462h172q78 -93 134.5 -198.5t94 -220t55.5 -236t18 -246.5q0 -124 -18 -244t-55.5 -232.5t-94 -215.5t-134.5 -193h-170q69 94 122 200t89 219t54 231t18 237q0 244 -72 475t-213 424zv -3542h 2274v 2071h -2371"></glyph><glyph unicode="*" d="v -2619h 87v 5812h -3489v 5830h -2101v 4662h -148v 5678h 2473v -90h 3941M82 1081l29 193l391 -111l-43 393h205l-43 -393l397 111l26 -193l-378 -28l245 -326l-178 -96l-176 358l-158 -358l-184 96l242 326z"></glyph><glyph unicode="+" d="v -347h 161M102 647h150h387h389h150h-389h387h-150h-387v-385h-150h385h-387z"></glyph><glyph unicode="," horiz-adv-x="512" d="M63 -264q15 61 29.5 127t28 131.5t24.5 128t19 115.5h198l15 -23q-14 -54 -33.5 -115t-43 -123t-49 -123.5t-50.5 -117.5h-138z"></glyph><glyph unicode="-" horiz-adv-x="659" d="M82 465h168h496v-168h-496z"></glyph><glyph unicode="." horiz-adv-x="549" d="M147 111q0 38 10 64.5t27 43t40 24t50 7.5q26 0 49.5 -7.5t40.5 -24t27 -43t10 -64.5q0 -37 -10 -63.5t-27 -43.5t-40.5 -25t-49.5 -8q-27 0 -50 8t-40 25t-27 43.5t-10 63.5z"></glyph><glyph unicode="/" horiz-adv-x="764" d="v 1064h 5339v -3349h 2487v 3223h 1159v 3880h 5997v 1054h 5721M20 0l545 1462h178l-544 -1462h-179z"></glyph><glyph unicode="0" d="M98 733q0 177 25.5 317t81 236.5t144 147.5t214.5 51q119 0 207 -50.5t146 -147t87 -236.5t29 -318q0 -177 -25.5 -317t-82 -237t-145.5 -148t-216 -51q-118 0 -205.5 51t-145 148t-86 237t-28.5 317zM283 733q0 -150 15 -262t48 -186.5t86.5 -112t130.5 -37.5t131 37 t88.5 111t50 186.5t15.5 263.5q0 150 -15.5 262t-50 186t-88.5 111t-131 37t-130.5 -37t-86.5 -111t-48 -186t-15 -262z"></glyph><glyph unicode="1" d="M178 1163l383 299h150h-1462h-176h913q0 43 0.5 92t2 97.5t3 93t2.5 78.5q-17 -18 -30 -31t-26.5 -25t-28.5 -25.5t-36 -31.5l-148 -121zv -780h 4120v 1060h -3502v -3693h 118v -546h -1930v -3626h 2064v -3532h 3863v 4693h 1311v 1770h -3462v -2731h -2968"></glyph><glyph unicode="2" d="M96 0h156l350 381q75 81 134 148t100.5 131t63.5 128.5t22 140.5q0 59 -17 104t-48.5 76.5t-74.5 47.5t-96 16q-95 0 -171.5 -38.5t-145.5 -98.5l-102 119q40 36 86 67.5t99 54.5t112 36.5t124 13.5q96 0 173.5 -27t131.5 -77.5t83.5 -123t29.5 -163.5q0 -85 -26.5 -162 t-73 -151.5t-111 -149.5t-139.5 -156l-281 -299h-8h689v-166h-912zv 11h 4018v -2886h 5584v -2755h -2659v 4024h 3698v 2630h -3814v -3770h 1089"></glyph><glyph unicode="3" d="v -3856h 5957v 3531h 5595v -3182h 1335M82 59h170q87 -46 188.5 -71t194.5 -25q92 0 159 20t110.5 57t64 91t20.5 121q0 68 -26.5 116.5t-75.5 80t-119.5 46.5t-159.5 15h-133h151h133q81 0 144 20t105.5 57t64.5 88t22 112q0 52 -18 93t-51 69.5t-79 43.5t-102 15q-107 0 -188.5 -33.5t-155.5 -87.5l-92 125 q38 31 84.5 58t101.5 47.5t117.5 32.5t132.5 12q108 0 189.5 -27t136.5 -75.5t83 -115t28 -145.5q0 -73 -23 -133t-64.5 -104t-99.5 -72.5t-129 -40.5h-6q177 -22 269 -112.5t92 -235.5q0 -96 -32.5 -176t-98.5 -138t-167 -90t-239 -32q-109 0 -205.5 17t-181.5 62z"></glyph><glyph unicode="4" d="v -2891h -2966v 1406h 4567v -2089h 4966v 5862h 3397M23 328h159l663 983h188h-976h213h-166h-213v-328h-176h328h-675zM201 494h497h356q0 56 1.5 117.5t3.5 120t4.5 109.5t3.5 85h-9q-7 -20 -17.5 -44.5t-23 -49t-25.5 -47.5t-24 -39z"></glyph><glyph unicode="5" d="M131 59h172q33 -23 77.5 -41t93.5 -30t98.5 -18.5t91.5 -6.5q79 0 141 18.5t105 57.5t66 98t23 140q0 143 -88 218.5t-256 75.5q-27 0 -58.5 -2.5t-63 -6.5t-60 -8.5t-49.5 -8.5l-90 57l55 688h690v-166h-532l-39 -419q32 6 84.5 13t124.5 7q99 0 184.5 -27.5t149 -81.5 t99.5 -134t36 -185q0 -114 -34 -205t-101 -154t-165.5 -96.5t-226.5 -33.5q-51 0 -100.5 5t-95 14.5t-86.5 24.5t-74 35zv 1528h 2180"></glyph><glyph unicode="6" d="M113 625q0 105 10.5 209t37 199.5t72.5 177.5t117 142.5t170 95t232 34.5q19 0 42 -1t46.5 -3.5t45 -6t38.5 -8.5h-155q-35 12 -79 18t-87 6q-90 0 -158.5 -21.5t-118.5 -60.5t-83.5 -93t-54.5 -119.5t-31 -139.5t-13 -154h12q20 36 48.5 67.5t66.5 54t85.5 35.5 t106.5 13q95 0 172 -29.5t131 -86.5t83.5 -139.5t29.5 -188.5q0 -114 -31 -205t-89 -154.5t-140 -97.5t-184 -34q-100 0 -187.5 39t-151.5 119t-101 201t-37 286zM295 506q0 -67 18.5 -133.5t55 -119.5t91.5 -86.5t128 -33.5q60 0 109.5 20.5t85.5 62t55.5 105t19.5 150.5 q0 70 -16.5 125.5t-49.5 94.5t-82.5 60t-115.5 21q-67 0 -122.5 -23.5t-94.5 -61t-60.5 -85.5t-21.5 -96z"></glyph><glyph unicode="7" d="v 982h -389v -2280h -968v 3093h 4020v 4368h 5714M90 1296h166h940v-145l-555 -1317h-194l563 1296h-754z"></glyph><glyph unicode="8" d="M106 373q0 75 22.5 135t60.5 108t90 85t110 65q-49 31 -92 67.5t-74.5 81.5t-50 99.5t-18.5 120.5q0 87 33.5 152.5t90.5 109.5t131.5 66t155.5 22q84 0 158.5 -22t131 -66t89.5 -110t33 -154q0 -67 -20 -121t-55 -97.5t-83 -78t-104 -62.5q58 -31 113.5 -69t99 -85.5 t70 -106.5t26.5 -132q0 -92 -33.5 -166.5t-94 -126.5t-145 -80t-186.5 -28q-110 0 -195.5 27t-144 77.5t-89 123.5t-30.5 165zM285 371q0 -53 16 -97.5t50 -76t86 -49t124 -17.5q70 0 123.5 17.5t89.5 50t54 78.5t18 102q0 52 -19.5 94t-56 78t-87.5 68t-114 63l-30 14 q-126 -60 -190 -137.5t-64 -187.5zM332 1126q0 -57 17.5 -98t48.5 -73t74.5 -57.5t94.5 -49.5q48 22 90.5 48t74 59t49.5 75t18 96q0 101 -63 154t-173 53q-106 0 -168.5 -53t-62.5 -154z"></glyph><glyph unicode="9" d="M106 991q0 114 31.5 205.5t89 155t140 97.5t184.5 34q101 0 188 -39t151 -119t101 -201.5t37 -285.5q0 -105 -10.5 -209.5t-37 -199.5t-72.5 -177.5t-117 -142.5t-170 -94.5t-232 -34.5q-19 0 -42 1t-46 3.5t-45 5.5t-39 8h156q35 -13 79 -19t87 -6q135 0 222 47 t138 127.5t72.5 187.5t26.5 226h-13q-20 -36 -48 -67t-66 -54t-86 -36t-107 -13q-95 0 -172 29.5t-131 86.5t-83.5 139.5t-29.5 188.5zM283 991q0 -70 16.5 -125.5t49.5 -94.5t82.5 -60t115.5 -21q68 0 123 23.5t94 61t60.5 85.5t21.5 96q0 67 -18.5 133.5t-55 120 t-91.5 86.5t-128 33q-60 0 -109.5 -20t-85.5 -62t-55.5 -105.5t-19.5 -150.5z"></glyph><glyph unicode=":" horiz-adv-x="549" d="M147 111q0 38 10 64.5t27 43t40 24t50 7.5q26 0 49.5 -7.5t40.5 -24t27 -43t10 -64.5q0 -37 -10 -63.5t-27 -43.5t-40.5 -25t-49.5 -8q-27 0 -50 8t-40 25t-27 43.5t-10 63.5zM147 987q0 39 10 65.5t27 43t40 23.5t50 7q26 0 49.5 -7t40.5 -23.5t27 -43t10 -65.5 q0 -37 -10 -63t-27 -43t-40.5 -25t-49.5 -8q-27 0 -50 8t-40 25t-27 43t-10 63z"></glyph><glyph unicode=";" horiz-adv-x="549" d="M63 -264q15 61 29.5 127t28 131.5t24.5 128t19 115.5h198l15 -23q-14 -54 -33.5 -115t-43 -123t-49 -123.5t-50.5 -117.5h-138zM147 987q0 39 10 65.5t27 43t40 23.5t50 7q26 0 49.5 -7t40.5 -23.5t27 -43t10 -65.5q0 -37 -10 -63t-27 -43t-40.5 -25t-49.5 -8 q-27 0 -50 8t-40 25t-27 43t-10 63z"></glyph><glyph unicode="&lt;" d="M102 662h102l924 481h-160l-735 -364l735 -322h-161zv -3131h -2527v 6063h 597v -3554h 3398v 1581h 5880v -1876h 3877"></glyph><glyph unicode="=" d="M102 442v150h924v-150h-924zM102 852h149h924v-149h-924zv 1638h 4865"></glyph><glyph unicode="&gt;" d="v 2705h 3658v 1012h 1257v 370h 5772v 18h 2272v 3023h -253v -2520h -158v 1746h 3037v 3458h -1424v -3955h 1276M102 238h161l736 322l-736 364v160l924 -481v-102z"></glyph><glyph unicode="?" horiz-adv-x="872" d="M37 1382q81 42 175 71.5t191 29.5q93 0 167.5 -25.5t126.5 -73.5t80 -117.5t28 -156.5q0 -67 -13.5 -119.5t-40.5 -97.5t-67 -87t-94 -89q-52 -45 -85 -78.5t-52 -65t-26 -64.5t-7 -77v-18h-139h37q0 57 7.5 103t27 86t52.5 78.5t83 80.5q48 41 82 74.5t55.5 68t32 74 t10.5 92.5q0 48 -15 87.5t-43.5 68t-71 44t-98.5 15.5q-83 0 -158 -26t-145 -60zM233 111q0 38 10 64.5t27 43t40 24t50 7.5q26 0 49.5 -7.5t40.5 -24t27 -43t10 -64.5q0 -37 -10 -63.5t-27 -43.5t-40.5 -25t-49.5 -8q-27 0 -50 8t-40 25t-27 43.5t-10 63.5zv 1230h 1702v -3508h -541v -2603h 6009v -468h -2765v -3151h 5603v 1066h 1966v 2702h -3952"></glyph><glyph unicode="@" horiz-adv-x="1774" d="M109 575q0 188 59 350.5t168.5 281.5t265 187t348.5 68q156 0 287 -50.5t226.5 -145t148.5 -230t53 -305.5q0 -62 -9.5 -124.5t-28 -119t-47 -105t-66.5 -84.5t-86.5 -56.5t-106.5 -20.5q-45 0 -81.5 15t-62.5 40t-42.5 57.5t-22.5 67.5h-4q-18 -37 -45 -70t-62.5 -57.5 t-80 -38.5t-97.5 -14q-77 0 -136.5 28t-100.5 78.5t-62.5 121.5t-21.5 157q0 101 29.5 185t85 145t134.5 95t177 34q45 0 90 -4t86 -11t75.5 -15.5t57.5 -16.5l-23 -416q-1 -22 -1.5 -35.5t-0.5 -21.5h-12h-7q0 -53 10.5 -87t27.5 -54t38.5 -27.5t44.5 -7.5q46 0 81 30.5 t58.5 82.5t35.5 122t12 148q0 142 -43 252.5t-119 186.5t-180.5 115.5t-227.5 39.5q-169 0 -298 -55.5t-216.5 -155t-132.5 -236t-45 -298.5q0 -151 39.5 -268t116 -197t190 -121t260.5 -41q61 0 120.5 7t115 19t105.5 27.5t93 32.5h-141q-86 -38 -194 -60t-238 -22 q-179 0 -319.5 51t-238 148.5t-148.5 238t-51 319.5zM662 602q0 -133 50.5 -192.5t135.5 -59.5q55 0 94 22.5t64 64t38 99t17 126.5l14 253q-28 8 -66.5 14.5t-80.5 6.5q-74 0 -124.5 -29t-82 -76t-45.5 -107t-14 -122z"></glyph><glyph unicode="A" horiz-adv-x="1245" d="M0 0l537 1468h170l538 -1468h-190l-160 453h-545l-162 -453h-188zM410 618h426l-148 424q-6 18 -14.5 44t-17.5 56t-18 62.5t-17 63.5q-7 -31 -16 -64t-18 -63.5t-17.5 -56t-14.5 -42.5z"></glyph><glyph unicode="B" horiz-adv-x="1272" d="v -2245h 2454v -3615h 486v 1631h 2161v 38h 1610M199 0h1462h399q128 0 225.5 -19.5t163 -63t98.5 -114t33 -173.5q0 -62 -19.5 -116t-56.5 -95t-91.5 -68.5t-123.5 -36.5h-10q69 -12 129.5 -34.5t105.5 -62t71 -99.5t26 -146q0 -100 -32.5 -178.5t-94 -133t-149.5 -83.5t-199 -29h-485zM385 158h266q88 0 147.5 20 t96 56t52.5 86.5t16 111.5q0 56 -16.5 103t-54 80.5t-99.5 52t-154 18.5h-254v-528zM385 842h244q84 0 141 15t92 44.5t50.5 74t15.5 103.5q0 120 -77 172t-243 52h-223h-461z"></glyph><glyph unicode="C" horiz-adv-x="1235" d="v 3827h -3023v 2969h -3471v 4482h -1451v 6095h -3317v 4880h 2387v -793h 4848M125 733q0 166 43.5 304t128 237t209.5 154t287 55q108 0 206 -22t177 -64l-78 -156q-63 32 -137 55t-168 23q-107 0 -194 -40.5t-148.5 -116.5t-95 -185t-33.5 -246q0 -141 29.5 -250.5t88.5 -184.5t147 -114t206 -39q89 0 169 17.5t158 40.5v-162q-39 -15 -78 -26.5 t-81.5 -18.5t-91 -10.5t-107.5 -3.5q-164 0 -284 54t-198.5 153t-116.5 238t-38 308z"></glyph><glyph unicode="D" horiz-adv-x="1401" d="M199 0h1462h407q153 0 277 -46t211 -136.5t134.5 -224.5t47.5 -310q0 -185 -48 -324.5t-139 -233t-223.5 -140.5t-300.5 -47h-366zM385 160h162q264 0 398 146t134 433q0 146 -33 252.5t-96 175.5t-155 102.5t-209 33.5h-201h-1143z"></glyph><glyph unicode="E" horiz-adv-x="1081" d="v 464h 137v -2394h -572v 2258h 222v 1032h 3813v -2848h 5748v 3207h -525v 531h 4660v 826h -3533v -81h -1203M199 0h1462h759h-164h-573v-452h535h-162h-535h-520h573h-164h-759z"></glyph><glyph unicode="F" horiz-adv-x="1006" d="M199 0h1462h759h-164h-573h-516h535h-164h-535v-618h-186z"></glyph><glyph unicode="G" horiz-adv-x="1413" d="v 2790h 1175v 3411h 2533v -2608h -1030v 3944h -1471v -3248h 4373v 287h -2696v 4256h 1738v 4376h 4255M125 733q0 172 47.5 311t138.5 236.5t224.5 150t304.5 52.5q111 0 213 -22t190 -64l-72 -162q-36 17 -77.5 32t-85.5 26.5t-90.5 18.5t-92.5 7q-122 0 -216 -40.5t-157.5 -116.5t-96.5 -185t-33 -246q0 -130 27.5 -238t87.5 -186t155 -121t229 -43q44 0 80.5 2.5 t67.5 6.5t58.5 9.5t53.5 10.5h436h-299h164h484h-717q-55 -18 -111 -32t-115 -23.5t-124 -14.5t-140 -5q-157 0 -278 52.5t-204 150t-126 237t-43 313.5z"></glyph><glyph unicode="H" horiz-adv-x="1436" d="M199 0v1462h186h-616h666h616h186v-1462h-186v682h-666h-682h-186zv -2007h -2237"></glyph><glyph unicode="I" horiz-adv-x="694" d="M82 0h102l172 41v1176l-172 41v102h530v-102l-172 -41v-1176l172 -41v-102h-530z"></glyph><glyph unicode="J" horiz-adv-x="555" d="v -1475h 2445v 2810h 3483v 3564h 3622v -2388h 2240v 5931h -702v 1722h 164v 5594h -3564M-184 -205q34 -9 73 -14.5t84 -5.5q37 0 74.5 9.5t68 34.5t49.5 69t19 112h1462h187h-1442q0 -105 -29.5 -182t-82 -127.5t-126 -75t-162.5 -24.5q-51 0 -89 6.5t-66 17.5h160z"></glyph><glyph unicode="K" horiz-adv-x="1186" d="v -1746h 1853v 774h -183v 2031h 1855v 1390h -3968v -1760h 3918v 5312h 2296v 1671h 5409v -1774h -3301v -2713h 3155v 4401h 5243M199 0h1462h186h-731l121 168l452 563h209l-520 -637l539 -825h-211l-451 698l-139 -114h-584h-186z"></glyph><glyph unicode="L" horiz-adv-x="1006" d="M199 0v1462h186h-1296h573v-166h-759z"></glyph><glyph unicode="M" horiz-adv-x="1782" d="M199 0v1462h276l412 -1192h6l414 1192h276h-1462h-186v887q0 52 2 119t5 128q4 71 7 144h-8l-447 -1278h-153l-443 1280h-8q6 -74 10 -147q4 -63 6.5 -132.5t2.5 -126.5h-874h-172z"></glyph><glyph unicode="N" horiz-adv-x="1493" d="M199 0h1462h213l716 -1204h7q-3 76 -7 150q-1 32 -2.5 65.5l-3 67t-2 64.5t-0.5 57h800h174h-1462h-215l-719 1210h-8q6 -77 10 -153q4 -65 6.5 -136t2.5 -128h-793h-172zv -2726h 4145v 4376h 5404"></glyph><glyph unicode="O" horiz-adv-x="1520" d="M125 735q0 170 38 308.5t117 236.5t199 151.5t283 53.5q155 0 272.5 -53.5t197.5 -152t120.5 -237t40.5 -309.5q0 -169 -40.5 -308t-120.5 -238t-198.5 -153t-273.5 -54q-163 0 -282.5 54t-198 153t-116.5 238.5t-38 309.5zM322 733q0 -137 26 -246.5t79.5 -186t136 -117 t196.5 -40.5t196.5 40.5t136 117t78.5 186t25 246.5q0 138 -25 247t-78 184.5t-135 116t-196 40.5t-197 -40.5t-137 -116t-80 -184.5t-26 -247zv 4050h 1857v 1426h -241v 361h 241"></glyph><glyph unicode="P" horiz-adv-x="1180" d="v -2176h -3261v -3546h 1697v -1548h 408v 3618h 2246v 5343h 2280v -1856h 5756v 561h -2354v 6018h 1923v -1211h -2598M199 0v1462h362q134 0 231 -28.5t160 -83t93 -134.5t30 -182q0 -91 -27.5 -175t-90.5 -148.5t-166.5 -103t-255.5 -38.5h-150h-569h-186zM385 727h129q93 0 162.5 16t115 51.5t68.5 92t23 137.5q0 142 -82 210.5t-256 68.5h-160h-576z"></glyph><glyph unicode="Q" horiz-adv-x="1518" d="M125 735q0 170 38 308.5t117 236.5t199 151.5t283 53.5q155 0 272.5 -53.5t197.5 -152t120.5 -237t40.5 -309.5q0 -131 -24.5 -244t-72 -203.5t-118.5 -156.5t-164 -104q43 -94 111.5 -165.5t158.5 -131.5l-121 -142q-103 73 -189.5 172t-137.5 226q-17 -2 -37.5 -3 t-38.5 -1q-163 0 -282.5 54t-198 153t-116.5 238.5t-38 309.5zM322 733q0 -137 26 -246.5t79.5 -186t136 -117t196.5 -40.5t196.5 40.5t136 117t78.5 186t25 246.5q0 138 -25 247t-78 184.5t-135 116t-196 40.5t-197 -40.5t-137 -116t-80 -184.5t-26 -247zv 4470h -4009v -3659h 2547"></glyph><glyph unicode="R" horiz-adv-x="1208" d="v 4017h -997v -1471h 505v -3394h 1922v 4132h 615v -2817h 5448v 4842h -2348M199 0h1462h356q266 0 393 -103t127 -312q0 -87 -24.5 -152t-65 -111.5t-92.5 -77.5t-107 -51l398 -655h-219l-351 604h-229h-604h-186zM385 762h164q90 0 153 17.5t103.5 52t59 86t18.5 120.5q0 72 -20.5 122t-62 82t-105 46.5t-150.5 14.5h-160h-541z"></glyph><glyph unicode="S" horiz-adv-x="1063" d="M104 49h178q34 -16 77.5 -31.5t91.5 -27.5t99 -19.5t101 -7.5q160 0 236.5 60t76.5 172q0 54 -14.5 94t-51 73.5t-97.5 65t-154 68.5q-89 35 -154.5 76.5t-108 93.5t-63 118t-20.5 150q0 88 32 157t90 116.5t138.5 72.5t177.5 25q119 0 214 -22.5t169 -57.5l-67 -156 q-65 29 -147.5 50.5t-170.5 21.5q-122 0 -189 -56.5t-67 -152.5q0 -57 15 -98.5t50 -75t92.5 -63t141.5 -62.5q91 -36 159.5 -74t114.5 -86t69.5 -111t23.5 -149q0 -97 -34.5 -173.5t-98.5 -129.5t-156 -80.5t-207 -27.5q-111 0 -207.5 17.5t-161.5 51.5zv 4367h 5926v 1121h -1873v 4704h 3806v 1986h 1184v -1927h 4549"></glyph><glyph unicode="T" horiz-adv-x="1063" d="M20 1298h164h1022v-164h-417h-1298h-187h1298h-418zv 4624h 5960v -2397h 3056v 737h 4141v 5482h 2489v -17h 5908v -2806h 5119v 5201h -750v -3513h 6063"></glyph><glyph unicode="U" horiz-adv-x="1430" d="M184 520h942h187h-952q0 -175 86.5 -271t261.5 -96q89 0 153 27t105 76t61 117t21 149h952h186h-948q0 -114 -33 -212t-99.5 -170t-167 -113t-236.5 -41q-128 0 -226 38.5t-164.5 109.5t-100.5 170.5t-34 221.5z"></glyph><glyph unicode="V" horiz-adv-x="1163" d="M0 1462h197l295 -927q29 -91 50 -175.5t38 -158.5q15 74 38 158.5t54 181.5l293 921h198l-489 -1462h-187zv 3937h -530"></glyph><glyph unicode="W" horiz-adv-x="1810" d="v 1123h -434v -2121h -249v 3717h 2670v -3947h -130v 1294h 2357v -201h 182v -776h -1557v 5849h 2488v 1964h 4453v 2667h -1697M20 1462h197l223 -889q12 -46 22 -95.5t18.5 -98.5t15.5 -94.5t12 -83.5q5 37 12.5 86t17.5 103t21.5 109.5t24.5 104.5l225 858h197l229 -856q15 -56 29.5 -112t27 -108.5t22 -99.5t15.5 -85q4 38 10 83t14 94.5t17.5 101t20.5 100.5l200 882h199l-367 -1462h-188 l-254 938q-14 51 -27 105t-24 101q-12 55 -23 107q-11 -51 -22 -106q-10 -47 -22.5 -103t-26.5 -110l-242 -932h-188z"></glyph><glyph unicode="X" horiz-adv-x="1120" d="M0 0l453 764l-422 698h198l332 -559l334 559h190l-421 -692l456 -770h-211l-354 635l-367 -635h-188z"></glyph><glyph unicode="Y" horiz-adv-x="1079" d="M0 1462h203l336 -739l340 739h200l-446 -893v-569h-187h559z"></glyph><glyph unicode="Z" horiz-adv-x="1104" d="M82 0h145l711 1151h-691v166h899v-145l-710 -1151h731v-166h-940z"></glyph><glyph unicode="[" horiz-adv-x="621" d="M164 -324h1786h405h-149h-223h-1487h223v-150h-405z"></glyph><glyph unicode="\" horiz-adv-x="764" d="v 5853h 4146v 2375h -67v -1326h -501v 4610h -2301M23 1462h178l544 -1462h-178z"></glyph><glyph unicode="]" horiz-adv-x="621" d="M51 -174h223h1487h-223v149h406h-1786h-406h150z"></glyph><glyph unicode="^" horiz-adv-x="1090" d="M41 549l459 924h102l447 -924h-161l-337 735l-349 -735h-161zv -1573h 1729v 2704h 4744v -3740h 4007v 3346h 2078"></glyph><glyph unicode="_" horiz-adv-x="842" d="M-4 -184h850v-140h-850h140z"></glyph><glyph unicode="`" horiz-adv-x="1182" d="M393 1548h21h219q16 -34 37.5 -74.5t44.5 -81t47 -78.5t45 -67h-27h-120q-35 28 -76 69.5t-79.5 85.5t-70 84.5t-47.5 67.5zv -1682h 1367v 5074h 2967v 3254h 4527v -657h 850v -2383h 3205v -3289h 3457v -3614h -3423v 1037h 6120v -2888h 692v -1377h -78"></glyph><glyph unicode="a" horiz-adv-x="1087" d="M94 307q0 164 115.5 252t351.5 96l184 7h69q0 67 -14.5 112t-42 72.5t-68 39.5t-92.5 12q-83 0 -154.5 -24t-137.5 -58l-64 137q74 40 165 68t191 28q102 0 176.5 -20.5t123 -65t72.5 -113.5t24 -167h-752h-131l-37 152h-8q-33 -45 -66 -77.5t-72 -53.5t-87 -31t-111 -10 q-69 0 -127 19.5t-100.5 60t-66.5 102t-24 145.5zM283 305q0 -92 48.5 -135t127.5 -43q61 0 113 19t90 57.5t59.5 97t21.5 137.5v99l-143 -7q-90 -4 -151 -20t-97.5 -44.5t-52.5 -69t-16 -91.5zv -1731h 1251v 2986h -1677v -959h 2085v 2536h -548v -467h -2084v -572h 1735v 4043h 5348v 3151h 66v 5573h -1747"></glyph><glyph unicode="b" horiz-adv-x="1200" d="M174 0h1556h182h-376q0 -35 -1 -74.5t-3 -73.5q-2 -40 -4 -78h8q23 35 52 65t67.5 52t86.5 34.5t108 12.5q94 0 171 -36t131.5 -107.5t84.5 -177.5t30 -246q0 -141 -30 -247.5t-84.5 -178.5t-131.5 -108.5t-171 -36.5q-59 0 -107 13t-86.5 34.5t-68 50.5t-52.5 61h-12 l-37 -139h-133zM356 551q0 -101 13.5 -179.5t46 -132t86.5 -81t135 -27.5q135 0 198.5 109t63.5 313q0 208 -63.5 311t-200.5 103q-80 0 -133.5 -25.5t-86 -77.5t-46 -130t-13.5 -183z"></glyph><glyph unicode="c" horiz-adv-x="948" d="v 1139h -1143v 4833h -2688M113 543q0 157 38 266.5t104.5 178t155.5 99.5t191 31q78 0 152.5 -17t124.5 -42l-54 -154q-23 10 -51 19.5t-58 17t-59 12t-55 4.5q-157 0 -229 -100.5t-72 -312.5q0 -211 72.5 -308.5t220.5 -97.5q81 0 146.5 18.5t119.5 43.5v-162q-54 -29 -115.5 -44t-150.5 -15 q-101 0 -189 31.5t-153 100t-102 175t-37 256.5z"></glyph><glyph unicode="d" horiz-adv-x="1200" d="M113 547q0 141 30 247.5t85 178.5t132 108.5t170 36.5q59 0 107 -13t86.5 -35t68.5 -51t52 -61h12q-3 34 -6 65q-2 26 -4 53.5t-2 43.5v436h182h-1556h-147l-27 147h-8q-22 -34 -51.5 -64.5t-68 -53.5t-86.5 -36t-108 -13q-93 0 -170 36t-132 107.5t-85 177.5t-30 246z M301 545q0 -209 63.5 -311.5t200.5 -102.5q76 0 128.5 23t85 70t48 117.5t17.5 164.5v41q0 101 -13.5 179.5t-46 132t-86.5 81t-135 27.5q-135 0 -198.5 -109t-63.5 -313z"></glyph><glyph unicode="e" horiz-adv-x="1096" d="M113 541q0 136 33 243t93 181.5t143.5 113.5t184.5 39q99 0 178 -35.5t134 -100t84.5 -155t29.5 -200.5h-113h-692q5 -193 81.5 -284t227.5 -91q51 0 94.5 5t84 14.5t78.5 24t77 32.5h-162q-40 -19 -78.5 -33t-79 -23t-84 -13t-94.5 -4q-110 0 -201 37t-156.5 108 t-101.5 176t-36 240zM305 662h492q0 68 -13.5 124.5t-42 96.5t-72.5 62t-106 22q-114 0 -180.5 -78t-77.5 -227z"></glyph><glyph unicode="f" horiz-adv-x="674" d="M29 961v75l194 68h96q0 107 22.5 177.5t65 112.5t104.5 59.5t140 17.5q59 0 108.5 -11.5t88.5 -25.5l-47 -141q-31 11 -67.5 19.5t-76.5 8.5t-69 -9.5t-48 -33.5t-28.5 -65.5t-9.5 -106.5h-104h245v-137h-245h-961h-183h961h-194zv 5093h -595v 639h 3985v -349h 3327v -529h 1425v 3284h -2317v 5098h 2746v -3347h -3069v -1972h 1693v 3244h 3768v -9h 3042"></glyph><glyph unicode="g" horiz-adv-x="1061" d="M37 -186q0 60 19.5 105.5t52.5 78.5t76.5 54t90.5 32q-42 19 -69 60t-27 94q0 61 32 105.5t101 86.5q-43 18 -78.5 49.5t-60 72t-38 88.5t-13.5 99q0 89 25 159t74 119t122 75t170 26q37 0 76.5 -5.5t66.5 -14.5h363h-113l-197 -27q28 -35 47 -89.5t19 -123.5 q0 -76 -23.5 -140.5t-71 -111.5t-117.5 -73.5t-163 -26.5q-22 0 -44 0.5t-36 3.5q-17 -10 -33.5 -22.5t-30 -28.5t-22 -36t-8.5 -44q0 -27 12 -43.5t32.5 -25.5t48.5 -12t59 -3h176q93 0 157 -23.5t104.5 -63.5t58.5 -94.5t18 -115.5q0 -88 -32.5 -158t-99.5 -118.5 t-169.5 -74.5t-241.5 -26q-107 0 -187 21t-133 61t-79.5 96.5t-26.5 127.5zM209 -180q0 -37 13 -69t42.5 -55t78 -36.5t120.5 -13.5q186 0 278.5 57.5t92.5 165.5q0 46 -12 75t-39.5 45.5t-72.5 22.5t-110 6h-176q-35 0 -73 -8t-69.5 -30t-52 -60.5t-20.5 -99.5zM301 745 q0 -115 54 -171t153 -56q100 0 151.5 55.5t51.5 174.5q0 123 -52.5 181t-152.5 58q-99 0 -152 -60t-53 -182z"></glyph><glyph unicode="h" horiz-adv-x="1206" d="M174 0v1556h182h-462l-8 -144h10q25 43 59.5 74.5t75.5 52.5t87 31t94 10q183 0 275.5 -95.5t92.5 -305.5h-717h-182h707q0 130 -52.5 195t-164.5 65q-81 0 -136 -26t-88.5 -77t-48 -125t-14.5 -170h-569h-182zv 454h 2521v -3309h -1685v 1297h -107v 177h 3469v 6092h 5423v -3218h -2457"></glyph><glyph unicode="i" horiz-adv-x="530" d="M160 1395q0 60 30.5 87t75.5 27q22 0 41.5 -6.5t34 -20.5t23 -35.5t8.5 -51.5q0 -58 -31.5 -86.5t-75.5 -28.5q-45 0 -75.5 28t-30.5 87zM174 0h1098h182h-1098h-182zv -4045h -176v 6099h 2574"></glyph><glyph unicode="j" horiz-adv-x="530" d="M-68 -319q26 -10 53 -15.5t62 -5.5q27 0 50 7.5t40.5 27t27 52t9.5 83.5h1268h182v-1256q0 -77 -17 -138.5t-53 -105t-90.5 -67t-129.5 -23.5q-48 0 -79.5 7t-54.5 18v148zM160 1395q0 60 30.5 87t75.5 27q22 0 41.5 -6.5t34 -20.5t23 -35.5t8.5 -51.5q0 -58 -31.5 -86.5 t-75.5 -28.5q-45 0 -75.5 28t-30.5 87z"></glyph><glyph unicode="k" horiz-adv-x="1016" d="v 3677h 5870v 2557h 6113v -3803h 2714v 1303h 542v 2100h -2852v -1710h 1470v 3621h 5896M174 0h1556h180h-714l-16 -275h4l135 170l293 361h211l-401 -475l428 -623h-209l-336 504l-109 -82h-422h-180z"></glyph><glyph unicode="l" horiz-adv-x="530" d="M174 0h1556h182h-1556h-182z"></glyph><glyph unicode="m" horiz-adv-x="1835" d="M174 0h1098h148l26 -148h10q24 43 57 74.5t72.5 52.5t84 31t90.5 10q120 0 199.5 -44t117.5 -138h8q26 47 62.5 81t80 56.5t91.5 33.5t98 11q175 0 263.5 -95.5t88.5 -305.5h-717h-182v707q0 130 -50 195t-155 65q-73 0 -124 -23.5t-83.5 -69t-47.5 -113t-15 -155.5h-606 h-183v707q0 130 -49.5 195t-154.5 65q-77 0 -129 -26t-83.5 -77t-45 -125t-13.5 -170h-569h-182zv -1963h -1302v 1288h -1449v -2960h -297"></glyph><glyph unicode="n" horiz-adv-x="1206" d="M174 0v1098h148l26 -148h10q25 43 59.5 74.5t75.5 52.5t87 31t94 10q183 0 275.5 -95.5t92.5 -305.5h-717h-182h707q0 130 -52.5 195t-164.5 65q-81 0 -136 -26t-88.5 -77t-48 -125t-14.5 -170h-569h-182zv -3024h 3211"></glyph><glyph unicode="o" horiz-adv-x="1182" d="M113 551q0 136 33.5 241.5t95.5 178t151.5 110t200.5 37.5q103 0 190 -37.5t150.5 -110t99 -178t35.5 -241.5q0 -137 -33.5 -243.5t-96 -179t-151.5 -110.5t-200 -38q-103 0 -190 38t-150.5 110.5t-99 179t-35.5 243.5zM301 551q0 -209 68.5 -314.5t222.5 -105.5 t221.5 105.5t67.5 314.5t-68.5 312.5t-222.5 103.5t-221.5 -103.5t-67.5 -312.5z"></glyph><glyph unicode="p" horiz-adv-x="1200" d="v -3986h -826v 5607h -2729v 1879h 4370v -1062h -1383M174 -492h1590h148l26 -148h8q23 35 52 65.5t67.5 53t86.5 36t108 13.5q94 0 171 -36t131.5 -107.5t84.5 -177.5t30 -246q0 -141 -30 -247.5t-84.5 -178.5t-131.5 -108.5t-171 -36.5q-59 0 -107 13t-86.5 34.5t-68 50.5t-52.5 61h-12q3 -34 6 -65q2 -26 4 -53.5t2 -43.5 h-469h-182zM356 551q0 -101 13.5 -179.5t46 -132t86.5 -81t135 -27.5q135 0 198.5 109t63.5 313q0 208 -63.5 311t-200.5 103q-76 0 -128.5 -23t-85 -70t-48 -117t-17.5 -165h-41z"></glyph><glyph unicode="q" horiz-adv-x="1200" d="M113 547q0 141 30 247.5t85 178.5t132 108.5t170 36.5q59 0 107 -13.5t86 -36t68 -53t53 -65.5h8l27 148h147h-1590h-182h469q0 19 2 48t4 56q3 32 6 66h-12q-22 -34 -51.5 -64.5t-68 -53.5t-86.5 -36t-108 -13q-93 0 -170 36t-132 107.5t-85 177.5t-30 246zM301 545 q0 -209 63.5 -311.5t200.5 -102.5q76 0 128.5 23t85 70t48 117.5t17.5 164.5h41q0 101 -13.5 179.5t-46 132t-86.5 81t-135 27.5q-135 0 -198.5 -109t-63.5 -313zv 2269h 296v 2860h 1055"></glyph><glyph unicode="r" horiz-adv-x="817" d="v 3777h -3687v 4299h 2516v 5838h -2425v 1623h 5044M174 0h1098h148l22 -201h8q25 43 53.5 83t64 70.5t79.5 49t100 18.5q29 0 65 -2.5t62 -7.5l-24 -168q-28 5 -57.5 8.5t-55.5 3.5q-63 0 -115 -25.5t-89.5 -73t-58 -114t-20.5 -147.5h-592h-182z"></glyph><glyph unicode="s" horiz-adv-x="924" d="M90 49h166q31 -16 69 -31.5t80 -27.5t86.5 -19.5t88.5 -7.5q65 0 110.5 11t74 31.5t41.5 50t13 65.5q0 31 -10 56t-36.5 49.5t-72.5 49.5t-118 56t-129.5 61t-97.5 67t-61.5 85.5t-21.5 115.5q0 70 27.5 124.5t77.5 91.5t120 56t156 19q97 0 177.5 -21t152.5 -55 l-63 -147q-65 29 -133.5 50.5t-139.5 21.5q-102 0 -151 -33.5t-49 -95.5q0 -35 11.5 -61t39.5 -49t75 -46.5t117 -52.5q72 -30 128.5 -60t96.5 -67.5t61 -85.5t21 -115q0 -80 -29 -140t-83.5 -100.5t-131.5 -60.5t-173 -20q-109 0 -187 17.5t-137 51.5z"></glyph><glyph unicode="t" horiz-adv-x="694" d="M33 961h81l155 78l78 230h105h-252h276h-137h-276h-637q0 -97 31.5 -146t103.5 -49q18 0 40.5 2t43.5 5t38.5 7t26.5 7v-138q-13 -6 -33 -12t-44 -10.5t-50 -7t-51 -2.5q-62 0 -115 16t-91.5 55t-60.5 105.5t-22 167.5h637h-155z"></glyph><glyph unicode="u" horiz-adv-x="1206" d="M164 381h717h182h-707q0 -130 53 -195t164 -65q81 0 136 26t88.5 76.5t48 124.5t14.5 170h570h182h-1098h-147l-27 147h-10q-25 -43 -59.5 -74.5t-75.5 -52t-87 -30.5t-94 -10q-91 0 -160 23t-115 72t-69.5 125t-23.5 181zv 4231h -1822"></glyph><glyph unicode="v" horiz-adv-x="981" d="M0 1098h188l199 -611q11 -33 26 -85t30 -106t27.5 -102t16.5 -73h7q5 25 17 73t27 102t30 106t26 85l199 611h188l-375 -1098h-231z"></glyph><glyph unicode="w" horiz-adv-x="1528" d="M20 1098h191l131 -584q10 -45 20 -97.5t19 -104t16 -97t11 -74.5h6q5 26 13.5 69.5t19 92t21.5 96t21 80.5l179 619h196l172 -619q9 -34 20.5 -80t22.5 -93.5t20 -91.5t13 -73h6q3 26 9.5 69.5t15.5 95.5t19.5 106.5t21.5 101.5l137 584h186l-284 -1098h-215l-168 616 q-4 18 -10 40.5t-12 47.5t-12.5 51t-12.5 51q-14 58 -29 120h-6q-14 -63 -27 -121q-11 -50 -23.5 -103t-23.5 -90l-172 -612h-211z"></glyph><glyph unicode="x" horiz-adv-x="1024" d="M35 0l373 563l-353 535h207l250 -410l250 410h207l-355 -535l373 -563h-207l-268 436l-270 -436h-207z"></glyph><glyph unicode="y" horiz-adv-x="1001" d="M10 1098h189l215 -613q14 -40 28.5 -84t27 -88t21.5 -85t13 -76h6q5 25 16 68t24.5 91.5t28 95.5t25.5 80l199 611h188l-434 -1241q-28 -81 -60.5 -145.5t-75.5 -109.5t-101 -69.5t-138 -24.5q-52 0 -90 5.5t-65 11.5h145q21 -5 53 -8.5t67 -3.5q48 0 83 11.5t61 33.5 t44.5 54t33.5 73l57 160z"></glyph><glyph unicode="z" horiz-adv-x="903" d="v 3857h 5630v 5323h -567v -558h -1956v 4556h 3440v 3660h -2603v -2066h -3170v 2622h 3690v 2847h 4273v -2499h 4077M82 0h125l536 836h-503h137h688h-146l-524 -815h542h-137h-739z"></glyph><glyph unicode="{" horiz-adv-x="725" d="M61 492h155q125 0 190.5 43t65.5 146v333q0 78 27 133t74.5 90.5t113 52t142.5 17.5h-149q-40 -1 -72.5 -7.5t-55 -24t-34.5 -48t-12 -78.5h-332q0 -105 -59.5 -166.5t-174.5 -81.5v-12q115 -20 174.5 -81t59.5 -167h-331q0 -48 12 -78.5t34.5 -48t55 -24t72.5 -7.5h-150 q-77 1 -142.5 17.5t-113 52t-74.5 90.5t-27 133h334q0 103 -65.5 146t-190.5 43zv 1635h 1202v -2424h -558"></glyph><glyph unicode="|" d="v 1781h 1919v 1958h 1118v 5591h 1990v 3894h -1012v 2203h -446v -499h -1404M489 -492h2048h150h-2048h-150z"></glyph><glyph unicode="}" horiz-adv-x="725" d="M51 -174q40 1 72.5 7.5t55 24t34.5 48t12 78.5h331q0 106 59.5 167t174.5 81h12q-115 20 -174.5 81.5t-59.5 166.5h332q0 48 -12 78.5t-34.5 48t-55 24t-72.5 7.5h149q77 -1 142.5 -17.5t113 -52t74.5 -90.5t27 -133h-333q0 -52 16.5 -88t49 -58.5t80.5 -32.5t110 -10 h-155q-125 0 -190.5 -43t-65.5 -146h-334q0 -78 -27 -133t-74.5 -90.5t-113 -52t-142.5 -17.5h150zv 1892h -810"></glyph><glyph unicode="~" d="v 4564h 4406v -266h 3026v 1788h 3733v 1948h 1936M102 586h162q100 108 248 108q29 0 54 -2.5t52.5 -9t61 -19t80.5 -32.5q37 -16 64.5 -27t51 -17.5t43.5 -9t42 -2.5q28 0 58 9.5t59.5 26t57.5 38.5t52 47v-162q-99 -108 -248 -108q-29 0 -54 2.5t-52.5 9t-61 19t-80.5 32.5q-37 16 -64.5 27t-50 17.5t-43 9t-42.5 2.5 q-28 0 -58 -9.5t-59.5 -26t-57.5 -38.5t-53 -47z"></glyph><glyph unicode="&#161;" horiz-adv-x="551" d="v -110h 1957v 6049h 4821v -1857h 1955v -548h 1660v 3559h -225v 5500h 1456v -66h -3165M147 979q0 37 10 63t27.5 43t40.5 25t49 8q27 0 50 -8t40.5 -25t27 -43t9.5 -63q0 -38 -9.5 -64.5t-27 -43t-40.5 -24t-50 -7.5q-26 0 -49 7.5t-40.5 24t-27.5 43t-10 64.5zM162 -373l51 1049h121l51 -1049h-223z"></glyph><glyph unicode="&#162;" d="M188 743q0 141 26.5 242.5t75 169.5t118 105.5t155.5 50.5h172h137h-164q72 -3 140 -19.5t114 -39.5l-53 -154q-23 10 -51 19.5t-58 17t-59.5 12t-54.5 4.5q-157 0 -229 -101t-72 -313q0 -210 72.5 -307.5t220.5 -97.5q81 0 146.5 18.5t119.5 42.5h-161q-50 -28 -105 -43 t-131 -17h-200h-137v206q-87 13 -156 50.5t-118 104t-75 166t-26 236.5z"></glyph><glyph unicode="&#163;" d="M68 0v154q44 11 80.5 31.5t63 54.5t41.5 82.5t15 115.5h213h-198h137h198v324q0 87 29.5 155.5t82 116t125.5 72.5t161 25q106 0 193 -22.5t153 -57.5l-66 -144q-56 29 -126.5 50.5t-145.5 21.5q-48 0 -89 -13.5t-71 -43t-46.5 -76.5t-16.5 -113h-295h376v-137h-376h-211 q0 -62 -11.5 -106.5t-31 -76.5t-45 -53.5t-52.5 -37.5h748v-166h-991z"></glyph><glyph unicode="&#164;" d="v -2851h 433v -1124h -2845v -2949h -2612v 4947h -1490M123 1065l98 98l127 -129q47 32 101 50t114 18t113.5 -18t99.5 -50l129 129l99 -96l-130 -129q31 -46 49.5 -100.5t18.5 -114.5t-17.5 -115t-50.5 -100l127 -127l-96 -96l-129 127q-46 -31 -99.5 -48.5t-113.5 -17.5t-115 18t-100 50l-127 -127l-96 96l127 127 q-31 45 -48.5 99t-17.5 114q0 59 17.5 112.5t48.5 100.5zM324 723q0 -50 18.5 -93.5t51 -76t76 -51.5t93.5 -19q51 0 95.5 19t77.5 51.5t52 76t19 93.5q0 51 -19 95.5t-52 77.5t-77.5 52t-95.5 19q-50 0 -93.5 -19t-76 -52t-51 -77.5t-18.5 -95.5z"></glyph><glyph unicode="&#165;" d="M29 1462h192l342 -739l346 739h191l-385 -768h239h-137h-301v-158h301v-137h-301h-262h-178h262h-301h137h301h158h-301h137h234z"></glyph><glyph unicode="&#166;" d="M489 289h150v-781h-150v781zM489 776h780h150v-780h-150z"></glyph><glyph unicode="&#167;" horiz-adv-x="995" d="M121 55h158q31 -15 69 -30t80 -26.5t86.5 -18.5t87.5 -7q69 0 115.5 12t74 31.5t39 45t11.5 52.5q0 29 -8.5 51.5t-34 45t-72.5 47t-123 55.5q-73 31 -130.5 62t-97.5 70t-60.5 89t-20.5 117q0 51 13 92.5t35.5 73.5t51.5 54.5t60 37.5q-75 38 -117.5 95t-42.5 141 q0 61 27.5 110t77.5 83t120 52.5t156 18.5q97 0 175.5 -20t150.5 -52l-56 -139q-65 28 -135 47.5t-141 19.5q-99 0 -150 -29.5t-51 -86.5q0 -27 12 -50t40.5 -45t76 -45.5t117.5 -52.5q72 -28 128.5 -60.5t95.5 -71.5t60 -87.5t21 -110.5q0 -52 -12 -94.5t-32.5 -76.5 t-46.5 -58.5t-54 -40.5q69 -38 107 -92.5t38 -132.5q0 -71 -29.5 -126.5t-83.5 -94t-131.5 -58.5t-173.5 -20q-108 0 -186 16.5t-137 48.5zM291 831q0 -37 14 -68.5t45.5 -60.5t82 -56.5t122.5 -57.5l35 -15q20 13 40.5 31t37 41t27 51t10.5 62q0 38 -13 70t-45.5 61.5 t-86.5 58t-136 58.5q-25 -8 -48.5 -23.5t-42.5 -38t-30.5 -51.5t-11.5 -62z"></glyph><glyph unicode="&#168;" horiz-adv-x="1182" d="M307 1395q0 54 28 78t68 24q39 0 68 -24.5t29 -77.5t-29 -78t-68 -25q-40 0 -68 25t-28 78zM682 1395q0 54 28 78t68 24q19 0 36.5 -6t30.5 -18.5t21 -31.5t8 -46q0 -53 -29 -78t-67 -25q-40 0 -68 25t-28 78zv -2746h 2428v 3793h -603v -113h -1275v -3187h 2242v -3397h -3122v -2062h 2495v 169h -3883v 677h 1469v -260h 5991"></glyph><glyph unicode="&#169;" horiz-adv-x="1704" d="v 1064h 1136v 5337h -1241v 2745h -1144v 3505h 5853v 4600h -400v -101h 72v -2001h -2083v 909h -2456v 5280h -1292v 3733h -2191M100 731q0 104 27 200t75.5 179.5t117.5 152.5t152.5 117.5t179.5 75.5t200 27t200 -27t179.5 -75.5t152.5 -117.5t117.5 -152.5t75.5 -179.5t27 -200t-27 -200t-75.5 -179.5t-117.5 -152t-152.5 -117.5t-179.5 -75.5t-200 -26.5t-200 26.5t-179.5 75.5t-152.5 117.5 t-117.5 152t-75.5 179.5t-27 200zM209 731q0 -133 50.5 -250t138 -204.5t204.5 -138t250 -50.5t250 50.5t204.5 138t138 204.5t50.5 250t-50.5 250t-138 204.5t-204.5 138t-250 50.5t-250 -50.5t-204.5 -138t-138 -204.5t-50.5 -250zM479 733q0 101 27 184.5t79.5 143.5 t129 93.5t176.5 33.5q63 0 129 -16.5t125 -45.5l-62 -127q-52 26 -100.5 40t-91.5 14q-61 0 -108 -22t-79 -63.5t-48.5 -101.5t-16.5 -135q0 -78 14.5 -138t45 -101t78 -62.5t114.5 -21.5q23 0 50 3.5t55.5 9.5t56.5 14.5t53 17.5h-131q-24 -11 -48.5 -20t-51 -16 t-56.5 -10.5t-65 -3.5q-102 0 -178 33t-126.5 94t-76 146t-25.5 188z"></glyph><glyph unicode="&#170;" horiz-adv-x="678" d="M68 989q0 102 70.5 156t213.5 59l99 4h31q0 72 -30.5 100.5t-86.5 28.5q-48 0 -93 -14.5t-87 -36.5l-48 100q51 26 109.5 44t118.5 18q125 0 184.5 -53t59.5 -175h-454h-91l-28 82q-18 -22 -37.5 -39.5t-43 -30t-51.5 -19t-63 -6.5q-43 0 -79 13t-62 38.5t-40.5 64 t-14.5 89.5zM199 987q0 -51 25 -73.5t67 -22.5q34 0 63 10.5t50.5 32.5t34 54.5t12.5 76.5h49l-74 -4q-51 -3 -85 -12t-54.5 -24t-29.5 -36.5t-9 -50.5zv 2252h -3645v -720h 1962v -915h 322v -1125h 6068v 5055h 1137v 4037h 4181v -1375h 2075v 2191h 2006"></glyph><glyph unicode="&#171;" horiz-adv-x="997" d="M82 526h27l309 414l117 -78l-238 -348l238 -348l-117 -78zM489 526v27l310 414l116 -78l-237 -348l237 -348l-116 -78z"></glyph><glyph unicode="&#172;" d="v 3796h -3478v 5246h 481v 2413h -438M102 647h150h924h-535h-149h385h-775z"></glyph><glyph unicode="&#173;" horiz-adv-x="659" d="v 1014h -772M82 465v168h496h-168h-496z"></glyph><glyph unicode="&#174;" horiz-adv-x="1704" d="v -1399h 2198v 1995h -2782v 6121h 2972v 5981h -3284v 797h -3509M100 731q0 104 27 200t75.5 179.5t117.5 152.5t152.5 117.5t179.5 75.5t200 27t200 -27t179.5 -75.5t152.5 -117.5t117.5 -152.5t75.5 -179.5t27 -200t-27 -200t-75.5 -179.5t-117.5 -152t-152.5 -117.5t-179.5 -75.5t-200 -26.5t-200 26.5t-179.5 75.5t-152.5 117.5 t-117.5 152t-75.5 179.5t-27 200zM209 731q0 -133 50.5 -250t138 -204.5t204.5 -138t250 -50.5t250 50.5t204.5 138t138 204.5t50.5 250t-50.5 250t-138 204.5t-204.5 138t-250 50.5t-250 -50.5t-204.5 -138t-138 -204.5t-50.5 -250zM586 285h893h233q168 0 247 -65t79 -200 q0 -48 -13.5 -85.5t-36 -66t-51 -48.5t-59.5 -33q67 -110 120 -197q23 -37 44 -72.5t37.5 -63.5t26.5 -45l10 -17h-179l-206 352h-95h-352h-157zM743 768h72q91 0 130.5 36t39.5 105q0 74 -41.5 103.5t-130.5 29.5h-70h-274z"></glyph><glyph unicode="&#175;" horiz-adv-x="1024" d="v -3345h -712v -548h 5428v 4950h 1977v 1633h 3878v 2575h 1774v -3567h -2626v -1896h 435v 812h -697v 1765h 2182M-6 1556v140h1036h-140h-1036z"></glyph><glyph unicode="&#176;" horiz-adv-x="877" d="M123 1167q0 65 25 122.5t67.5 100.5t100 68t122.5 25t122.5 -25t100.5 -68t68 -100.5t25 -122.5t-25 -122t-68 -99.5t-100.5 -67t-122.5 -24.5t-122.5 24.5t-100 67t-67.5 99.5t-25 122zM246 1167q0 -39 15 -73.5t41 -60.5t61 -41t75 -15t75 15t61.5 41t41.5 60.5 t15 73.5q0 40 -15 75.5t-41.5 62t-61.5 42t-75 15.5t-75 -15.5t-61 -42t-41 -62t-15 -75.5zv 1927h -1328v 3592h 5175"></glyph><glyph unicode="&#177;" d="v 5663h 5901v 5220h -2796v 4158h 3084v -1903h 3891M102 0v150h924v-150h-924zM102 647h150h387h389h150v-389h387v-150h-387h-385h-150h385h-387z"></glyph><glyph unicode="&#178;" horiz-adv-x="678" d="M49 586h112l209 228q57 62 93 104.5t56 76t27.5 63t7.5 63.5q0 65 -33 97t-87 32q-51 0 -97.5 -25t-91.5 -63l-78 94q54 48 120.5 80.5t148.5 32.5q60 0 108.5 -16.5t82.5 -48t52.5 -77t18.5 -102.5q0 -50 -14.5 -93t-41.5 -85.5t-66.5 -88t-90.5 -100.5l-148 -157h396 h-127h-572zv 910h -809"></glyph><glyph unicode="&#179;" horiz-adv-x="678" d="M31 625h133q63 -34 129 -53t119 -19q98 0 142 41.5t44 114.5q0 74 -53.5 107.5t-149.5 33.5h-98h113h98q92 0 134 39.5t42 103.5q0 32 -10 55.5t-27.5 38.5t-41 22t-50.5 7q-59 0 -107.5 -20.5t-99.5 -57.5l-69 96q29 23 59.5 41.5t64.5 31.5t72 20.5t82 7.5 q69 0 121.5 -17t87.5 -47t52.5 -71.5t17.5 -90.5q0 -78 -40.5 -131t-109.5 -77q88 -23 132 -76t44 -131q0 -60 -20 -110t-61.5 -85.5t-104.5 -55.5t-149 -20q-70 0 -131.5 12.5t-118.5 43.5zv -2182h 4003v -3410h 1354v 881h -2388v 1259h 2806v 4098h -4068v 3659h -2187v 4851h 5602v -1008h -1064"></glyph><glyph unicode="&#180;" horiz-adv-x="1182" d="M393 1241v27q22 29 45.5 67t47 78.5t44.5 81t37 74.5h219h-21q-16 -27 -47.5 -67.5t-70 -84.5t-79 -85.5t-75.5 -69.5h-121zv 5972h -188v 2165h 4493v 1353h 382"></glyph><glyph unicode="&#181;" horiz-adv-x="1217" d="M174 -492h1590h182h-707q0 -130 53 -195t164 -65q82 0 137 26t88.5 76.5t47.5 124.5t14 170h570h182h-1098h-147l-27 147h-10q-48 -83 -120 -125t-175 -42q-72 0 -125 23t-88 65q1 -38 3 -78q2 -35 2.5 -77.5t0.5 -84.5h-320h-182z"></glyph><glyph unicode="&#182;" horiz-adv-x="1341" d="M113 1042q0 147 32.5 245.5t92 158.5t142.5 85t183 25h563v-1816h-120h1657h-207v-1657h-121h819q-61 -18 -146 -18q-95 0 -172.5 25.5t-132 84.5t-84.5 155t-30 236z"></glyph><glyph unicode="&#183;" horiz-adv-x="549" d="M147 723q0 38 10 64.5t27 43t40 24t50 7.5q26 0 49.5 -7.5t40.5 -24t27 -43t10 -64.5q0 -37 -10 -63t-27 -43t-40.5 -25t-49.5 -8q-27 0 -50 8t-40 25t-27 43t-10 63zv 4495h 405v -1661h 3088v 4850h -3085v 3465h -3874v 2272h 6058v 3192h -1724"></glyph><glyph unicode="&#184;" horiz-adv-x="420" d="M35 -375q15 -3 39.5 -4.5t40.5 -1.5q71 0 111 21.5t40 70.5q0 24 -13 41.5t-36 30.5t-54.5 22.5t-68.5 18.5l90 176h121l-57 -115q34 -8 63 -21t50.5 -33.5t34 -49.5t12.5 -68q0 -97 -70.5 -151t-220.5 -54q-22 0 -44.5 3t-37.5 6v108zv -3388h 2636v 1355h 2694v -3050h 5251v -934h -1159v 70h -1392v -1943h 409v -547h 778v 5730h 5019"></glyph><glyph unicode="&#185;" horiz-adv-x="678" d="M63 1274l244 188h135v-876h-145h516q0 25 0.5 55t2 60t3 58t2.5 50q-14 -17 -33 -37t-41 -37l-94 -73z"></glyph><glyph unicode="&#186;" horiz-adv-x="717" d="v -944h -1446M66 1133q0 83 20.5 147.5t58.5 108.5t92.5 67t122.5 23q62 0 115.5 -23t92.5 -67t61 -108.5t22 -147.5t-20.5 -148t-59 -109.5t-93 -68t-122.5 -23.5q-63 0 -116 23.5t-92 68t-60.5 109.5t-21.5 148zM197 1133q0 -119 37.5 -179.5t123.5 -60.5q85 0 122.5 60.5 t37.5 179.5q0 120 -37.5 177.5t-122.5 57.5q-86 0 -123.5 -57.5t-37.5 -177.5z"></glyph><glyph unicode="&#187;" horiz-adv-x="997" d="M84 193l238 348l-238 348l117 78l309 -414h-27l-309 -411zM492 193l237 348l-237 348l116 78l310 -414v-27l-310 -411z"></glyph><glyph unicode="&#188;" horiz-adv-x="1509" d="M63 1274l244 188h135h-876h-145h516q0 25 0.5 55t2 60t3 58t2.5 50q-14 -17 -33 -37t-41 -37l-94 -73zM234 0l811 1462h157l-811 -1462h-157zM776 193v111l377 579h141h-563h125h-127h-125h-192h-143h192h-375zM922 320h229h195q0 42 1.5 91.5t4.5 98.5q-5 -11 -15 -29.5 t-21 -39.5t-23 -41l-21 -35zv 3709h -2171v 4553h 4010v -1939h -1897v -1700h -269v 1143h -1749v -1180h 6082v -2133h -3317"></glyph><glyph unicode="&#189;" horiz-adv-x="1509" d="M44 1274l244 188h135h-876h-145v516q0 25 0.5 55t2 60t3 58t2.5 50q-14 -17 -33 -37t-41 -37l-94 -73zM213 0l811 1462h157l-811 -1462h-157zM868 1v112l209 228q57 62 93 104.5t56 76t27.5 63t7.5 63.5q0 65 -33 97t-87 32q-51 0 -97.5 -25t-91.5 -63l-78 94 q54 48 120.5 80.5t148.5 32.5q60 0 108.5 -16.5t82.5 -48t52.5 -77t18.5 -102.5q0 -50 -14.5 -93t-41.5 -85.5t-66.5 -88t-90.5 -100.5l-148 -157h396h-127h-572z"></glyph><glyph unicode="&#190;" horiz-adv-x="1509" d="M31 625v133q63 -34 129 -53t119 -19q98 0 142 41.5t44 114.5q0 74 -53.5 107.5t-149.5 33.5h-98h113h98q92 0 134 39.5t42 103.5q0 32 -10 55.5t-27.5 38.5t-41 22t-50.5 7q-59 0 -107.5 -20.5t-99.5 -57.5l-69 96q29 23 59.5 41.5t64.5 31.5t72 20.5t82 7.5 q69 0 121.5 -17t87.5 -47t52.5 -71.5t17.5 -90.5q0 -78 -40.5 -131t-109.5 -77q88 -23 132 -76t44 -131q0 -60 -20 -110t-61.5 -85.5t-104.5 -55.5t-149 -20q-70 0 -131.5 12.5t-118.5 43.5zM328 0l811 1462h157l-811 -1462h-157zM843 193h111l377 579h141v-563h125v-127 h-125h-192h-143v192h-375zM989 320h229h195q0 42 1.5 91.5t4.5 98.5q-5 -11 -15 -29.5t-21 -39.5t-23 -41l-21 -35z"></glyph><glyph unicode="&#191;" horiz-adv-x="872" d="M68 -20q0 68 13.5 120t40 97t67 87t94.5 89q52 45 85 78.5t52 64.5t26 64.5t7 76.5h19h139v-37q0 -58 -8 -103.5t-27.5 -86t-52 -78.5t-82.5 -80q-48 -41 -82 -74.5t-55.5 -68t-32 -74t-10.5 -92.5q0 -48 15 -87.5t43.5 -68t71 -44t97.5 -15.5q84 0 159 25.5t144 60.5 l64 -146q-82 -42 -176 -71t-191 -29q-93 0 -167.5 25.5t-126 73.5t-79.5 117t-28 157zM385 979q0 37 10 63t27.5 43t40.5 25t49 8q27 0 50 -8t40.5 -25t27 -43t9.5 -63q0 -38 -9.5 -64.5t-27 -43t-40.5 -24t-50 -7.5q-26 0 -49 7.5t-40.5 24t-27.5 43t-10 64.5z"></glyph><glyph unicode="&#192;" horiz-adv-x="1245" d="M0 0l537 1468h170l538 -1468h-190l-160 453h-545l-162 -453h-188zM326 1886h21h219q16 -34 37.5 -74.5t44.5 -81t47 -78.5t45 -67v-27h-120q-35 28 -76 69.5t-79.5 85.5t-70 84.5t-47.5 67.5zM410 618h426l-148 424q-6 18 -14.5 44t-17.5 56t-18 62.5t-17 63.5 q-7 -31 -16 -64t-18 -63.5t-17.5 -56t-14.5 -42.5zv 1736h -1043v 2552h 697v -2756h 3606v 6012h 5969v 5496h -664"></glyph><glyph unicode="&#193;" horiz-adv-x="1245" d="M0 0l537 1468h170l538 -1468h-190l-160 453h-545l-162 -453h-188zM410 618h426l-148 424q-6 18 -14.5 44t-17.5 56t-18 62.5t-17 63.5q-7 -31 -16 -64t-18 -63.5t-17.5 -56t-14.5 -42.5zM534 1579h27q22 29 45.5 67t47 78.5t44.5 81t37 74.5h219v-21q-16 -27 -47.5 -67.5 t-70 -84.5t-79 -85.5t-75.5 -69.5h-121zv 2041h 3284v -1056h 4486v -1717h 3142v 5474h 421v 3960h 6079v 33h -3057v 4677h -3683v -574h 3654"></glyph><glyph unicode="&#194;" horiz-adv-x="1245" d="M0 0l537 1468h170l538 -1468h-190l-160 453h-545l-162 -453h-188zM289 1579v27q26 29 60 67t67.5 78.5t63 81t45.5 74.5h192q16 -34 45.5 -74.5t63 -81t68 -78.5t59.5 -67h-27h-121q-51 34 -105 82.5t-106 103.5q-54 -55 -107 -103.5t-104 -82.5h-121zM410 618h426 l-148 424q-6 18 -14.5 44t-17.5 56t-18 62.5t-17 63.5q-7 -31 -16 -64t-18 -63.5t-17.5 -56t-14.5 -42.5z"></glyph><glyph unicode="&#195;" horiz-adv-x="1245" d="M0 0l537 1468h170l538 -1468h-190l-160 453h-545l-162 -453h-188zM264 1579q5 60 21.5 109t43 83.5t63.5 53t83 18.5q42 0 82.5 -17.5t78.5 -38.5t72.5 -38.5t63.5 -17.5q45 0 68 26t38 88h105q-5 -60 -21.5 -108.5t-43 -83t-63.5 -53.5t-83 -19q-40 0 -79.5 17.5 t-77.5 39t-73 39t-67 17.5q-45 0 -69 -26.5t-38 -88.5h-104zM410 618h426l-148 424q-6 18 -14.5 44t-17.5 56t-18 62.5t-17 63.5q-7 -31 -16 -64t-18 -63.5t-17.5 -56t-14.5 -42.5zv 4092h -72v 5001h 4286v 895h -57"></glyph><glyph unicode="&#196;" horiz-adv-x="1245" d="M0 0l537 1468h170l538 -1468h-190l-160 453h-545l-162 -453h-188zM340 1733q0 54 28 78t68 24q39 0 68 -24.5t29 -77.5t-29 -78t-68 -25q-40 0 -68 25t-28 78zM410 618h426l-148 424q-6 18 -14.5 44t-17.5 56t-18 62.5t-17 63.5q-7 -31 -16 -64t-18 -63.5t-17.5 -56 t-14.5 -42.5zM715 1733q0 54 28 78t68 24q19 0 36.5 -6t30.5 -18.5t21 -31.5t8 -46q0 -53 -29 -78t-67 -25q-40 0 -68 25t-28 78zv 809h -1537v 1740h 2385v 3793h 3072v -3565h -4041v -1970h 2441v 5589h 4377v 3120h 1360v 1842h 3159v 3762h 1689v 937h -113"></glyph><glyph unicode="&#197;" horiz-adv-x="1245" d="M0 0l537 1468h170l538 -1468h-190l-160 453h-545l-162 -453h-188zM396 1581q0 51 16 90.5t45.5 67.5t70.5 42.5t91 14.5q48 0 90 -14.5t73 -42t48.5 -67t17.5 -89.5q0 -51 -17.5 -91.5t-48 -68.5t-72.5 -42.5t-91 -14.5q-50 0 -91 14.5t-70.5 42.5t-45.5 67.5t-16 90.5z M410 618h426l-148 424q-6 18 -14.5 44t-17.5 56t-18 62.5t-17 63.5q-7 -31 -16 -64t-18 -63.5t-17.5 -56t-14.5 -42.5zM506 1581q0 -53 28.5 -83t84.5 -30q49 0 80.5 30t31.5 83t-31.5 83t-80.5 30q-50 0 -81.5 -30t-31.5 -83z"></glyph><glyph unicode="&#198;" horiz-adv-x="1745" d="M-2 0l655 1462h969h-164h-573h-452h534h-162h-534v-520h573h-164h-760h453h-475l-203 -453h-186zM459 618h403h680h-108z"></glyph><glyph unicode="&#199;" horiz-adv-x="1235" d="M125 733q0 166 43.5 304t128 237t209.5 154t287 55q108 0 206 -22t177 -64l-78 -156q-63 32 -137 55t-168 23q-107 0 -194 -40.5t-148.5 -116.5t-95 -185t-33.5 -246q0 -141 29.5 -250.5t88.5 -184.5t147 -114t206 -39q89 0 169 17.5t158 40.5h-162q-39 -15 -78 -26.5 t-81.5 -18.5t-91 -10.5t-107.5 -3.5q-164 0 -284 54t-198.5 153t-116.5 238t-38 308zM543 -375q15 -3 39.5 -4.5t40.5 -1.5q71 0 111 21.5t40 70.5q0 24 -13 41.5t-36 30.5t-54.5 22.5t-68.5 18.5l90 176h121l-57 -115q34 -8 63 -21t50.5 -33.5t34 -49.5t12.5 -68 q0 -97 -70.5 -151t-220.5 -54q-22 0 -44.5 3t-37.5 6h108z"></glyph><glyph unicode="&#200;" horiz-adv-x="1081" d="v 5101h 1530v -454h -2848v -3126h -993M199 0h1462h759h-164h-573h-452h535h-162h-535h-520h573h-164h-759zM320 1886h21h219q16 -34 37.5 -74.5t44.5 -81t47 -78.5t45 -67h-27h-120q-35 28 -76 69.5t-79.5 85.5t-70 84.5t-47.5 67.5z"></glyph><glyph unicode="&#201;" horiz-adv-x="1081" d="v -2052h 3346v -1258h 311v -2634h 5293v -2881h 513v 3318h 1875v 1926h -821v -3191h -661v 1269h 7v -3567h -1034M199 0h1462h759h-164h-573h-452h535h-162h-535h-520h573v-164h-759zM456 1579h27q22 29 45.5 67t47 78.5t44.5 81t37 74.5h219h-21q-16 -27 -47.5 -67.5t-70 -84.5t-79 -85.5t-75.5 -69.5h-121z"></glyph><glyph unicode="&#202;" horiz-adv-x="1081" d="v 3800h -12v 2811h -3193v 5496h 4522v 1618h 4759v -1557h 1427v -3974h 5465M199 0v1462h759h-164h-573h-452h535v-162h-535h-520h573h-164h-759zM243 1579v27q26 29 60 67t67.5 78.5t63 81t45.5 74.5h192q16 -34 45.5 -74.5t63 -81t68 -78.5t59.5 -67h-27h-121q-51 34 -105 82.5t-106 103.5q-54 -55 -107 -103.5t-104 -82.5h-121z"></glyph><glyph unicode="&#203;" horiz-adv-x="1081" d="M199 0v1462h759h-164h-573h-452h535v-162h-535v-520h573h-164h-759zM296 1733q0 54 28 78t68 24q39 0 68 -24.5t29 -77.5t-29 -78t-68 -25q-40 0 -68 25t-28 78zM671 1733q0 54 28 78t68 24q19 0 36.5 -6t30.5 -18.5t21 -31.5t8 -46q0 -53 -29 -78t-67 -25q-40 0 -68 25 t-28 78z"></glyph><glyph unicode="&#204;" horiz-adv-x="694" d="M62 1886h21h219q16 -34 37.5 -74.5t44.5 -81t47 -78.5t45 -67v-27h-120q-35 28 -76 69.5t-79.5 85.5t-70 84.5t-47.5 67.5zM82 0h102l172 41h1176l-172 41h102h530v-102l-172 -41h-1176l172 -41v-102h-530zv -1344h 6026v 1953h 3527v -1152h 211v 4925h -101v 4002h 4981"></glyph><glyph unicode="&#205;" horiz-adv-x="694" d="M82 0h102l172 41h1176l-172 41h102h530h-102l-172 -41h-1176l172 -41v-102h-530zM257 1579h27q22 29 45.5 67t47 78.5t44.5 81t37 74.5h219v-21q-16 -27 -47.5 -67.5t-70 -84.5t-79 -85.5t-75.5 -69.5h-121zv -1375h -1455v -2238h -3614v 233h 2695v 4769h 4561v 4418h 4327v 240h -3012v 4903h -2863v 1281h 5440v 4788h 1048v 186h -1636"></glyph><glyph unicode="&#206;" horiz-adv-x="694" d="M17 1579h27q26 29 60 67t67.5 78.5t63 81t45.5 74.5h192q16 -34 45.5 -74.5t63 -81t68 -78.5t59.5 -67h-27h-121q-51 34 -105 82.5t-106 103.5q-54 -55 -107 -103.5t-104 -82.5h-121zM82 0v102l172 41h1176l-172 41h102h530h-102l-172 -41h-1176l172 -41h-102h-530zv -3770h 3314v 303h 1707v 1994h 137v 5031h 3347v 4980h -1706v -1443h -3044v 1673h -1301v 4971h -3916v -1441h -3574v 1019h -4037"></glyph><glyph unicode="&#207;" horiz-adv-x="694" d="M64 1733q0 54 28 78t68 24q39 0 68 -24.5t29 -77.5t-29 -78t-68 -25q-40 0 -68 25t-28 78zM82 0h102l172 41h1176l-172 41h102h530h-102l-172 -41h-1176l172 -41h-102h-530zM439 1733q0 54 28 78t68 24q19 0 36.5 -6t30.5 -18.5t21 -31.5t8 -46q0 -53 -29 -78t-67 -25 q-40 0 -68 25t-28 78zv 4933h -1060v 4262h 3882v 1578h -2397v 4116h -1531v 1567h 2727"></glyph><glyph unicode="&#208;" horiz-adv-x="1401" d="v -1151h 5641M47 643h162h152h657h407q153 0 277 -46t211 -136.5t134.5 -224.5t47.5 -310q0 -185 -48 -324.5t-139 -233t-223.5 -140.5t-300.5 -47h-366v643h-152zM385 160h162q264 0 398 146t134 433q0 146 -33 252.5t-96 175.5t-155 102.5t-209 33.5h-201h-498h336h-162h-336h-483z "></glyph><glyph unicode="&#209;" horiz-adv-x="1493" d="M199 0h1462h213l716 -1204h7q-3 76 -7 150q-1 32 -2.5 65.5l-3 67t-2 64.5t-0.5 57v800h174h-1462h-215l-719 1210h-8q6 -77 10 -153q4 -65 6.5 -136t2.5 -128h-793h-172zM397 1579q5 60 21.5 109t43 83.5t63.5 53t83 18.5q42 0 82.5 -17.5t78.5 -38.5t72.5 -38.5 t63.5 -17.5q45 0 68 26t38 88h105q-5 -60 -21.5 -108.5t-43 -83t-63.5 -53.5t-83 -19q-40 0 -79.5 17.5t-77.5 39t-73 39t-67 17.5q-45 0 -69 -26.5t-38 -88.5h-104zv -3009h 698"></glyph><glyph unicode="&#210;" horiz-adv-x="1520" d="v -3713h -2458v 3759h 5660v 5919h -2865v -262h 371v 1986h 4610v 492h -1022v -4002h 1934M125 735q0 170 38 308.5t117 236.5t199 151.5t283 53.5q155 0 272.5 -53.5t197.5 -152t120.5 -237t40.5 -309.5q0 -169 -40.5 -308t-120.5 -238t-198.5 -153t-273.5 -54q-163 0 -282.5 54t-198 153t-116.5 238.5t-38 309.5zM322 733q0 -137 26 -246.5t79.5 -186t136 -117 t196.5 -40.5t196.5 40.5t136 117t78.5 186t25 246.5q0 138 -25 247t-78 184.5t-135 116t-196 40.5t-197 -40.5t-137 -116t-80 -184.5t-26 -247zM477 1886h21h219q16 -34 37.5 -74.5t44.5 -81t47 -78.5t45 -67v-27h-120q-35 28 -76 69.5t-79.5 85.5t-70 84.5t-47.5 67.5z"></glyph><glyph unicode="&#211;" horiz-adv-x="1520" d="M125 735q0 170 38 308.5t117 236.5t199 151.5t283 53.5q155 0 272.5 -53.5t197.5 -152t120.5 -237t40.5 -309.5q0 -169 -40.5 -308t-120.5 -238t-198.5 -153t-273.5 -54q-163 0 -282.5 54t-198 153t-116.5 238.5t-38 309.5zM322 733q0 -137 26 -246.5t79.5 -186t136 -117 t196.5 -40.5t196.5 40.5t136 117t78.5 186t25 246.5q0 138 -25 247t-78 184.5t-135 116t-196 40.5t-197 -40.5t-137 -116t-80 -184.5t-26 -247zM651 1579v27q22 29 45.5 67t47 78.5t44.5 81t37 74.5h219v-21q-16 -27 -47.5 -67.5t-70 -84.5t-79 -85.5t-75.5 -69.5h-121z"></glyph><glyph unicode="&#212;" horiz-adv-x="1520" d="M125 735q0 170 38 308.5t117 236.5t199 151.5t283 53.5q155 0 272.5 -53.5t197.5 -152t120.5 -237t40.5 -309.5q0 -169 -40.5 -308t-120.5 -238t-198.5 -153t-273.5 -54q-163 0 -282.5 54t-198 153t-116.5 238.5t-38 309.5zM322 733q0 -137 26 -246.5t79.5 -186t136 -117 t196.5 -40.5t196.5 40.5t136 117t78.5 186t25 246.5q0 138 -25 247t-78 184.5t-135 116t-196 40.5t-197 -40.5t-137 -116t-80 -184.5t-26 -247zM432 1579v27q26 29 60 67t67.5 78.5t63 81t45.5 74.5h192q16 -34 45.5 -74.5t63 -81t68 -78.5t59.5 -67h-27h-121 q-51 34 -105 82.5t-106 103.5q-54 -55 -107 -103.5t-104 -82.5h-121z"></glyph><glyph unicode="&#213;" horiz-adv-x="1520" d="M125 735q0 170 38 308.5t117 236.5t199 151.5t283 53.5q155 0 272.5 -53.5t197.5 -152t120.5 -237t40.5 -309.5q0 -169 -40.5 -308t-120.5 -238t-198.5 -153t-273.5 -54q-163 0 -282.5 54t-198 153t-116.5 238.5t-38 309.5zM322 733q0 -137 26 -246.5t79.5 -186t136 -117 t196.5 -40.5t196.5 40.5t136 117t78.5 186t25 246.5q0 138 -25 247t-78 184.5t-135 116t-196 40.5t-197 -40.5t-137 -116t-80 -184.5t-26 -247zM383 1579q5 60 21.5 109t43 83.5t63.5 53t83 18.5q42 0 82.5 -17.5t78.5 -38.5t72.5 -38.5t63.5 -17.5q45 0 68 26t38 88h105 q-5 -60 -21.5 -108.5t-43 -83t-63.5 -53.5t-83 -19q-40 0 -79.5 17.5t-77.5 39t-73 39t-67 17.5q-45 0 -69 -26.5t-38 -88.5h-104z"></glyph><glyph unicode="&#214;" horiz-adv-x="1520" d="M125 735q0 170 38 308.5t117 236.5t199 151.5t283 53.5q155 0 272.5 -53.5t197.5 -152t120.5 -237t40.5 -309.5q0 -169 -40.5 -308t-120.5 -238t-198.5 -153t-273.5 -54q-163 0 -282.5 54t-198 153t-116.5 238.5t-38 309.5zM322 733q0 -137 26 -246.5t79.5 -186t136 -117 t196.5 -40.5t196.5 40.5t136 117t78.5 186t25 246.5q0 138 -25 247t-78 184.5t-135 116t-196 40.5t-197 -40.5t-137 -116t-80 -184.5t-26 -247zM477 1733q0 54 28 78t68 24q39 0 68 -24.5t29 -77.5t-29 -78t-68 -25q-40 0 -68 25t-28 78zM852 1733q0 54 28 78t68 24 q19 0 36.5 -6t30.5 -18.5t21 -31.5t8 -46q0 -53 -29 -78t-67 -25q-40 0 -68 25t-28 78zv -416h -4008"></glyph><glyph unicode="&#215;" d="v 3748h -2893v 2432h 5371v -241h 2747v 1769h 2468v 3301h 5429v 335h -2207v 2091h 1600v 4943h 2055v -1095h 752v 5573h 1192M141 1042l105 105l317 -318l322 318l104 -103l-321 -321l319 -320l-102 -102l-322 317l-317 -315l-103 103l316 317z"></glyph><glyph unicode="&#216;" horiz-adv-x="1520" d="M125 735q0 170 38 308.5t117 236.5t199 151.5t283 53.5q94 0 174.5 -21t146.5 -59l80 127l137 -78l-92 -149q91 -99 138 -244t47 -328q0 -169 -40.5 -308t-120.5 -238t-198.5 -153t-273.5 -54q-189 0 -322 71l-78 -127l-137 78l90 145q-97 100 -142.5 249t-45.5 339z M322 733q0 -131 23 -235.5t71 -182.5l579 945q-48 29 -105 45t-128 16q-114 0 -197 -40.5t-137 -116t-80 -184.5t-26 -247zM530 201q47 -28 104 -43t126 -15q114 0 196.5 40.5t136 117t78.5 186t25 246.5q0 257 -88 408zv -2725h 4138"></glyph><glyph unicode="&#217;" horiz-adv-x="1430" d="M184 520h942h187h-952q0 -175 86.5 -271t261.5 -96q89 0 153 27t105 76t61 117t21 149v952h186v-948q0 -114 -33 -212t-99.5 -170t-167 -113t-236.5 -41q-128 0 -226 38.5t-164.5 109.5t-100.5 170.5t-34 221.5zM454 1886h21h219q16 -34 37.5 -74.5t44.5 -81t47 -78.5 t45 -67v-27h-120q-35 28 -76 69.5t-79.5 85.5t-70 84.5t-47.5 67.5zv 3292h 2842v 1775h 5092v 3041h 5513v 3563h 796v -2675h 1377"></glyph><glyph unicode="&#218;" horiz-adv-x="1430" d="M184 520h942h187h-952q0 -175 86.5 -271t261.5 -96q89 0 153 27t105 76t61 117t21 149h952h186v-948q0 -114 -33 -212t-99.5 -170t-167 -113t-236.5 -41q-128 0 -226 38.5t-164.5 109.5t-100.5 170.5t-34 221.5zM590 1579h27q22 29 45.5 67t47 78.5t44.5 81t37 74.5h219 h-21q-16 -27 -47.5 -67.5t-70 -84.5t-79 -85.5t-75.5 -69.5h-121zv -2083h -2934v 886h -2410v -1091h 3922v 2188h 1399"></glyph><glyph unicode="&#219;" horiz-adv-x="1430" d="v -3697h 3435v 694h -1505v 5744h 418v 1432h -3406M184 520h942h187v-952q0 -175 86.5 -271t261.5 -96q89 0 153 27t105 76t61 117t21 149h952h186h-948q0 -114 -33 -212t-99.5 -170t-167 -113t-236.5 -41q-128 0 -226 38.5t-164.5 109.5t-100.5 170.5t-34 221.5zM379 1579h27q26 29 60 67t67.5 78.5t63 81t45.5 74.5h192 q16 -34 45.5 -74.5t63 -81t68 -78.5t59.5 -67h-27h-121q-51 34 -105 82.5t-106 103.5q-54 -55 -107 -103.5t-104 -82.5h-121z"></glyph><glyph unicode="&#220;" horiz-adv-x="1430" d="M184 520h942h187h-952q0 -175 86.5 -271t261.5 -96q89 0 153 27t105 76t61 117t21 149h952h186h-948q0 -114 -33 -212t-99.5 -170t-167 -113t-236.5 -41q-128 0 -226 38.5t-164.5 109.5t-100.5 170.5t-34 221.5zM432 1733q0 54 28 78t68 24q39 0 68 -24.5t29 -77.5 t-29 -78t-68 -25q-40 0 -68 25t-28 78zM807 1733q0 54 28 78t68 24q19 0 36.5 -6t30.5 -18.5t21 -31.5t8 -46q0 -53 -29 -78t-67 -25q-40 0 -68 25t-28 78z"></glyph><glyph unicode="&#221;" horiz-adv-x="1079" d="M0 1462h203l336 -739l340 739h200l-446 -893h-569h-187h559zM442 1579h27q22 29 45.5 67t47 78.5t44.5 81t37 74.5h219h-21q-16 -27 -47.5 -67.5t-70 -84.5t-79 -85.5t-75.5 -69.5h-121z"></glyph><glyph unicode="&#222;" horiz-adv-x="1180" d="M199 0h1462h186v-252h176q134 0 231 -28.5t160 -83t93 -134.5t30 -182q0 -91 -27.5 -175t-90.5 -148.5t-166.5 -103t-255.5 -38.5h-150h-317h-186zM385 475h129q93 0 162.5 16t115 51.5t68.5 92t23 137.5q0 143 -82 211t-256 68h-160h-576zv -10h 3596v -1500h 588v 1696h -1044v -2689h -3104v -2061h -2148v -1930h 6008v -68h -3024v 4489h -1192v 3825h -3913"></glyph><glyph unicode="&#223;" horiz-adv-x="1233" d="M174 0v1200q0 104 31.5 174.5t88 113t134.5 61t170 18.5t168 -19t130 -57t84 -96t30 -135q0 -57 -21.5 -101.5t-53 -81t-69 -66.5t-69 -57.5t-53 -54.5t-21.5 -57q0 -21 7 -37.5t26.5 -36t54.5 -44t92 -62.5q56 -37 100 -73t74.5 -77t47 -89t16.5 -110q0 -87 -28 -150 t-78.5 -103.5t-121 -60t-155.5 -19.5q-97 0 -166.5 17.5t-122.5 51.5h166q26 -16 58.5 -31.5t68.5 -27.5t74 -19.5t75 -7.5q56 0 96.5 12.5t66.5 35t38 54.5t12 72q0 36 -8.5 65.5t-30 57.5t-57.5 57t-92 64q-63 40 -105.5 74t-69 67.5t-37.5 68.5t-11 77q0 54 20.5 93.5 t51.5 71t67 58.5t67 56t51.5 62.5t20.5 77.5q0 42 -16.5 73t-46.5 51.5t-71.5 30t-92.5 9.5q-49 0 -93 -9.5t-77 -33.5t-52.5 -65.5t-19.5 -106.5h-1202h-182zv 37h -41v 4084h -1490v -1032h -552v -1505h -1235v 352h 2339"></glyph><glyph unicode="&#224;" horiz-adv-x="1087" d="M94 307q0 164 115.5 252t351.5 96l184 7h69q0 67 -14.5 112t-42 72.5t-68 39.5t-92.5 12q-83 0 -154.5 -24t-137.5 -58l-64 137q74 40 165 68t191 28q102 0 176.5 -20.5t123 -65t72.5 -113.5t24 -167h-752h-131l-37 152h-8q-33 -45 -66 -77.5t-72 -53.5t-87 -31t-111 -10 q-69 0 -127 19.5t-100.5 60t-66.5 102t-24 145.5zM283 305q0 -92 48.5 -135t127.5 -43q61 0 113 19t90 57.5t59.5 97t21.5 137.5h99l-143 -7q-90 -4 -151 -20t-97.5 -44.5t-52.5 -69t-16 -91.5zM285 1548h21h219q16 -34 37.5 -74.5t44.5 -81t47 -78.5t45 -67v-27h-120 q-35 28 -76 69.5t-79.5 85.5t-70 84.5t-47.5 67.5zv -391h -2924v -2498h 4479v -3307h -3123v 4968h 3494"></glyph><glyph unicode="&#225;" horiz-adv-x="1087" d="M94 307q0 164 115.5 252t351.5 96l184 7h69q0 67 -14.5 112t-42 72.5t-68 39.5t-92.5 12q-83 0 -154.5 -24t-137.5 -58l-64 137q74 40 165 68t191 28q102 0 176.5 -20.5t123 -65t72.5 -113.5t24 -167h-752h-131l-37 152h-8q-33 -45 -66 -77.5t-72 -53.5t-87 -31t-111 -10 q-69 0 -127 19.5t-100.5 60t-66.5 102t-24 145.5zM283 305q0 -92 48.5 -135t127.5 -43q61 0 113 19t90 57.5t59.5 97t21.5 137.5h99l-143 -7q-90 -4 -151 -20t-97.5 -44.5t-52.5 -69t-16 -91.5zM446 1241h27q22 29 45.5 67t47 78.5t44.5 81t37 74.5h219h-21 q-16 -27 -47.5 -67.5t-70 -84.5t-79 -85.5t-75.5 -69.5h-121zv 2911h 4455v 3374h 2145v 1692h 2997v -1312h 721v 5376h 5962v -96h -733v 1016h 1671v 3396h 4296"></glyph><glyph unicode="&#226;" horiz-adv-x="1087" d="M94 307q0 164 115.5 252t351.5 96l184 7h69q0 67 -14.5 112t-42 72.5t-68 39.5t-92.5 12q-83 0 -154.5 -24t-137.5 -58l-64 137q74 40 165 68t191 28q102 0 176.5 -20.5t123 -65t72.5 -113.5t24 -167v-752h-131l-37 152h-8q-33 -45 -66 -77.5t-72 -53.5t-87 -31t-111 -10 q-69 0 -127 19.5t-100.5 60t-66.5 102t-24 145.5zM228 1241h27q26 29 60 67t67.5 78.5t63 81t45.5 74.5h192q16 -34 45.5 -74.5t63 -81t68 -78.5t59.5 -67h-27h-121q-51 34 -105 82.5t-106 103.5q-54 -55 -107 -103.5t-104 -82.5h-121zM283 305q0 -92 48.5 -135t127.5 -43 q61 0 113 19t90 57.5t59.5 97t21.5 137.5h99l-143 -7q-90 -4 -151 -20t-97.5 -44.5t-52.5 -69t-16 -91.5z"></glyph><glyph unicode="&#227;" horiz-adv-x="1087" d="M94 307q0 164 115.5 252t351.5 96l184 7v69q0 67 -14.5 112t-42 72.5t-68 39.5t-92.5 12q-83 0 -154.5 -24t-137.5 -58l-64 137q74 40 165 68t191 28q102 0 176.5 -20.5t123 -65t72.5 -113.5t24 -167h-752h-131l-37 152h-8q-33 -45 -66 -77.5t-72 -53.5t-87 -31t-111 -10 q-69 0 -127 19.5t-100.5 60t-66.5 102t-24 145.5zM191 1241q5 60 21.5 109t43 83.5t63.5 53t83 18.5q42 0 82.5 -17.5t78.5 -38.5t72.5 -38.5t63.5 -17.5q45 0 68 26t38 88h105q-5 -60 -21.5 -108.5t-43 -83t-63.5 -53.5t-83 -19q-40 0 -79.5 17.5t-77.5 39t-73 39t-67 17.5 q-45 0 -69 -26.5t-38 -88.5h-104zM283 305q0 -92 48.5 -135t127.5 -43q61 0 113 19t90 57.5t59.5 97t21.5 137.5v99l-143 -7q-90 -4 -151 -20t-97.5 -44.5t-52.5 -69t-16 -91.5z"></glyph><glyph unicode="&#228;" horiz-adv-x="1087" d="v -2532h 4115v -400h -198v -3249h -4020v 5089h -2194M94 307q0 164 115.5 252t351.5 96l184 7h69q0 67 -14.5 112t-42 72.5t-68 39.5t-92.5 12q-83 0 -154.5 -24t-137.5 -58l-64 137q74 40 165 68t191 28q102 0 176.5 -20.5t123 -65t72.5 -113.5t24 -167h-752h-131l-37 152h-8q-33 -45 -66 -77.5t-72 -53.5t-87 -31t-111 -10 q-69 0 -127 19.5t-100.5 60t-66.5 102t-24 145.5zM273 1395q0 54 28 78t68 24q39 0 68 -24.5t29 -77.5t-29 -78t-68 -25q-40 0 -68 25t-28 78zM283 305q0 -92 48.5 -135t127.5 -43q61 0 113 19t90 57.5t59.5 97t21.5 137.5h99l-143 -7q-90 -4 -151 -20t-97.5 -44.5 t-52.5 -69t-16 -91.5zM648 1395q0 54 28 78t68 24q19 0 36.5 -6t30.5 -18.5t21 -31.5t8 -46q0 -53 -29 -78t-67 -25q-40 0 -68 25t-28 78z"></glyph><glyph unicode="&#229;" horiz-adv-x="1087" d="M94 307q0 164 115.5 252t351.5 96l184 7h69q0 67 -14.5 112t-42 72.5t-68 39.5t-92.5 12q-83 0 -154.5 -24t-137.5 -58l-64 137q74 40 165 68t191 28q102 0 176.5 -20.5t123 -65t72.5 -113.5t24 -167h-752h-131l-37 152h-8q-33 -45 -66 -77.5t-72 -53.5t-87 -31t-111 -10 q-69 0 -127 19.5t-100.5 60t-66.5 102t-24 145.5zM283 305q0 -92 48.5 -135t127.5 -43q61 0 113 19t90 57.5t59.5 97t21.5 137.5v99l-143 -7q-90 -4 -151 -20t-97.5 -44.5t-52.5 -69t-16 -91.5zM331 1456q0 51 16 90.5t45.5 67.5t70.5 42.5t91 14.5q48 0 90 -14.5t73 -42 t48.5 -67t17.5 -89.5q0 -51 -17.5 -91.5t-48 -68.5t-72.5 -42.5t-91 -14.5q-50 0 -91 14.5t-70.5 42.5t-45.5 67.5t-16 90.5zM441 1456q0 -53 28.5 -83t84.5 -30q49 0 80.5 30t31.5 83t-31.5 83t-80.5 30q-50 0 -81.5 -30t-31.5 -83z"></glyph><glyph unicode="&#230;" horiz-adv-x="1706" d="v 42h -3998v -1722h -3359v 4702h -1202v 3830h 5333v 2801h -3845v -4027h 3349v 6096h -3460v 4917h -455v 4013h 1193v 2505h 3795M94 307q0 164 115.5 252t351.5 96l184 7h69q0 67 -14.5 112t-42 72.5t-68 39.5t-92.5 12q-83 0 -154.5 -24t-137.5 -58l-64 137q74 40 165 68t191 28q131 0 214 -42.5t126 -135.5q51 85 134 131.5t186 46.5q97 0 174 -35.5t131 -100t82.5 -155t28.5 -200.5v-113h-672 q5 -193 78.5 -284t220.5 -91q49 0 91.5 5t81.5 14.5t76 24t74 32.5h-162q-39 -19 -76.5 -33t-77 -23t-82 -13t-91.5 -4q-138 0 -239 57t-163 172q-34 -54 -72 -96.5t-85.5 -72t-105.5 -45t-132 -15.5q-71 0 -132.5 19.5t-106.5 60t-71 102t-26 145.5zM283 305 q0 -92 48.5 -135t127.5 -43q61 0 113 19t90 57.5t59.5 97t21.5 137.5h99l-143 -7q-90 -4 -151 -20t-97.5 -44.5t-52.5 -69t-16 -91.5zM936 662h471q0 68 -13 124.5t-40.5 96.5t-69.5 62t-100 22q-110 0 -173.5 -78t-74.5 -227z"></glyph><glyph unicode="&#231;" horiz-adv-x="948" d="v 3073h 1720v 4613h 3569v -1515h 4353v 4049h 1526v -1011h 2076v -1574h 2115v 1767h 508v 3005h -1717v 3043h 1845v 162h -1987M113 543q0 157 38 266.5t104.5 178t155.5 99.5t191 31q78 0 152.5 -17t124.5 -42l-54 -154q-23 10 -51 19.5t-58 17t-59 12t-55 4.5q-157 0 -229 -100.5t-72 -312.5q0 -211 72.5 -308.5t220.5 -97.5q81 0 146.5 18.5t119.5 43.5h-162q-54 -29 -115.5 -44t-150.5 -15 q-101 0 -189 31.5t-153 100t-102 175t-37 256.5zM357 -375q15 -3 39.5 -4.5t40.5 -1.5q71 0 111 21.5t40 70.5q0 24 -13 41.5t-36 30.5t-54.5 22.5t-68.5 18.5l90 176h121l-57 -115q34 -8 63 -21t50.5 -33.5t34 -49.5t12.5 -68q0 -97 -70.5 -151t-220.5 -54q-22 0 -44.5 3 t-37.5 6h108z"></glyph><glyph unicode="&#232;" horiz-adv-x="1096" d="M113 541q0 136 33 243t93 181.5t143.5 113.5t184.5 39q99 0 178 -35.5t134 -100t84.5 -155t29.5 -200.5h-113h-692q5 -193 81.5 -284t227.5 -91q51 0 94.5 5t84 14.5t78.5 24t77 32.5h-162q-40 -19 -78.5 -33t-79 -23t-84 -13t-94.5 -4q-110 0 -201 37t-156.5 108 t-101.5 176t-36 240zM285 1548h21h219q16 -34 37.5 -74.5t44.5 -81t47 -78.5t45 -67h-27h-120q-35 28 -76 69.5t-79.5 85.5t-70 84.5t-47.5 67.5zM305 662h492q0 68 -13.5 124.5t-42 96.5t-72.5 62t-106 22q-114 0 -180.5 -78t-77.5 -227z"></glyph><glyph unicode="&#233;" horiz-adv-x="1096" d="M113 541q0 136 33 243t93 181.5t143.5 113.5t184.5 39q99 0 178 -35.5t134 -100t84.5 -155t29.5 -200.5v-113h-692q5 -193 81.5 -284t227.5 -91q51 0 94.5 5t84 14.5t78.5 24t77 32.5h-162q-40 -19 -78.5 -33t-79 -23t-84 -13t-94.5 -4q-110 0 -201 37t-156.5 108 t-101.5 176t-36 240zM305 662h492q0 68 -13.5 124.5t-42 96.5t-72.5 62t-106 22q-114 0 -180.5 -78t-77.5 -227zM475 1241h27q22 29 45.5 67t47 78.5t44.5 81t37 74.5h219h-21q-16 -27 -47.5 -67.5t-70 -84.5t-79 -85.5t-75.5 -69.5h-121z"></glyph><glyph unicode="&#234;" horiz-adv-x="1096" d="M113 541q0 136 33 243t93 181.5t143.5 113.5t184.5 39q99 0 178 -35.5t134 -100t84.5 -155t29.5 -200.5h-113h-692q5 -193 81.5 -284t227.5 -91q51 0 94.5 5t84 14.5t78.5 24t77 32.5h-162q-40 -19 -78.5 -33t-79 -23t-84 -13t-94.5 -4q-110 0 -201 37t-156.5 108 t-101.5 176t-36 240zM224 1241v27q26 29 60 67t67.5 78.5t63 81t45.5 74.5h192q16 -34 45.5 -74.5t63 -81t68 -78.5t59.5 -67v-27h-121q-51 34 -105 82.5t-106 103.5q-54 -55 -107 -103.5t-104 -82.5h-121zM305 662h492q0 68 -13.5 124.5t-42 96.5t-72.5 62t-106 22 q-114 0 -180.5 -78t-77.5 -227zv 4517h 3865v 3584h 5852"></glyph><glyph unicode="&#235;" horiz-adv-x="1096" d="v 1986h 1273v 3271h -3505v -820h 4849v -31h 4886v 4676h -2204M113 541q0 136 33 243t93 181.5t143.5 113.5t184.5 39q99 0 178 -35.5t134 -100t84.5 -155t29.5 -200.5v-113h-692q5 -193 81.5 -284t227.5 -91q51 0 94.5 5t84 14.5t78.5 24t77 32.5h-162q-40 -19 -78.5 -33t-79 -23t-84 -13t-94.5 -4q-110 0 -201 37t-156.5 108 t-101.5 176t-36 240zM269 1395q0 54 28 78t68 24q39 0 68 -24.5t29 -77.5t-29 -78t-68 -25q-40 0 -68 25t-28 78zM305 662h492q0 68 -13.5 124.5t-42 96.5t-72.5 62t-106 22q-114 0 -180.5 -78t-77.5 -227zM644 1395q0 54 28 78t68 24q19 0 36.5 -6t30.5 -18.5t21 -31.5 t8 -46q0 -53 -29 -78t-67 -25q-40 0 -68 25t-28 78z"></glyph><glyph unicode="&#236;" horiz-adv-x="530" d="v 4900h -2728v 3830h 1282v 4604h -876v 3795h 933M-34 1548h21h219q16 -34 37.5 -74.5t44.5 -81t47 -78.5t45 -67v-27h-120q-35 28 -76 69.5t-79.5 85.5t-70 84.5t-47.5 67.5zM174 0v1098h182h-1098h-182z"></glyph><glyph unicode="&#237;" horiz-adv-x="530" d="M174 0h1098h182h-1098h-182zM185 1241h27q22 29 45.5 67t47 78.5t44.5 81t37 74.5h219v-21q-16 -27 -47.5 -67.5t-70 -84.5t-79 -85.5t-75.5 -69.5h-121zv 2357h -2887v -4002h -1545"></glyph><glyph unicode="&#238;" horiz-adv-x="530" d="M-67 1241v27q26 29 60 67t67.5 78.5t63 81t45.5 74.5h192q16 -34 45.5 -74.5t63 -81t68 -78.5t59.5 -67h-27h-121q-51 34 -105 82.5t-106 103.5q-54 -55 -107 -103.5t-104 -82.5h-121zM174 0h1098h182h-1098h-182zv 3737h 795v 1476h -2876v 2236h 3772v 2545h -1169v -3857h 5799v -3962h -2097"></glyph><glyph unicode="&#239;" horiz-adv-x="530" d="M-18 1395q0 54 28 78t68 24q39 0 68 -24.5t29 -77.5t-29 -78t-68 -25q-40 0 -68 25t-28 78zM174 0h1098h182h-1098h-182zM357 1395q0 54 28 78t68 24q19 0 36.5 -6t30.5 -18.5t21 -31.5t8 -46q0 -53 -29 -78t-67 -25q-40 0 -68 25t-28 78zv 4561h 2671v 160h 4133v -1740h -3419v 5299h 5452v 4537h 4344v 2096h -2882v 5200h 740v 3558h 3947v 175h 121v 4591h 287"></glyph><glyph unicode="&#240;" horiz-adv-x="1182" d="M111 477q0 119 31.5 211t90.5 155t143 95.5t189 32.5q102 0 179 -29.5t120 -89.5l8 4q-31 118 -91 214t-150 177l-256 -153l-74 114l217 131q-40 28 -82.5 55.5t-89.5 53.5l70 123q65 -32 126 -68t120 -80l227 138l74 -113l-195 -117q67 -65 122.5 -143t95 -171.5 t61.5 -204t22 -239.5q0 -142 -33.5 -252t-96 -186t-151.5 -115.5t-200 -39.5q-104 0 -191.5 33t-151 96.5t-99 156t-35.5 211.5zM303 471q0 -76 16.5 -138.5t52 -107.5t90 -69.5t130.5 -24.5q154 0 221.5 99.5t67.5 295.5q0 56 -17 109.5t-52 94.5t-90 66t-130 25 q-77 0 -131.5 -23t-89.5 -67t-51.5 -109.5t-16.5 -150.5z"></glyph><glyph unicode="&#241;" horiz-adv-x="1206" d="M174 0h1098h148l26 -148h10q25 43 59.5 74.5t75.5 52.5t87 31t94 10q183 0 275.5 -95.5t92.5 -305.5h-717h-182h707q0 130 -52.5 195t-164.5 65q-81 0 -136 -26t-88.5 -77t-48 -125t-14.5 -170h-569h-182zM251 1241q5 60 21.5 109t43 83.5t63.5 53t83 18.5 q42 0 82.5 -17.5t78.5 -38.5t72.5 -38.5t63.5 -17.5q45 0 68 26t38 88h105q-5 -60 -21.5 -108.5t-43 -83t-63.5 -53.5t-83 -19q-40 0 -79.5 17.5t-77.5 39t-73 39t-67 17.5q-45 0 -69 -26.5t-38 -88.5h-104z"></glyph><glyph unicode="&#242;" horiz-adv-x="1182" d="M113 551q0 136 33.5 241.5t95.5 178t151.5 110t200.5 37.5q103 0 190 -37.5t150.5 -110t99 -178t35.5 -241.5q0 -137 -33.5 -243.5t-96 -179t-151.5 -110.5t-200 -38q-103 0 -190 38t-150.5 110.5t-99 179t-35.5 243.5zM301 551q0 -209 68.5 -314.5t222.5 -105.5 t221.5 105.5t67.5 314.5t-68.5 312.5t-222.5 103.5t-221.5 -103.5t-67.5 -312.5zM353 1548h21h219q16 -34 37.5 -74.5t44.5 -81t47 -78.5t45 -67h-27h-120q-35 28 -76 69.5t-79.5 85.5t-70 84.5t-47.5 67.5zv -2866h 2675v 4149h -13v 3258h 1049v -2686h -487v 1822h 1422"></glyph><glyph unicode="&#243;" horiz-adv-x="1182" d="M113 551q0 136 33.5 241.5t95.5 178t151.5 110t200.5 37.5q103 0 190 -37.5t150.5 -110t99 -178t35.5 -241.5q0 -137 -33.5 -243.5t-96 -179t-151.5 -110.5t-200 -38q-103 0 -190 38t-150.5 110.5t-99 179t-35.5 243.5zM301 551q0 -209 68.5 -314.5t222.5 -105.5 t221.5 105.5t67.5 314.5t-68.5 312.5t-222.5 103.5t-221.5 -103.5t-67.5 -312.5zM473 1241v27q22 29 45.5 67t47 78.5t44.5 81t37 74.5h219h-21q-16 -27 -47.5 -67.5t-70 -84.5t-79 -85.5t-75.5 -69.5h-121z"></glyph><glyph unicode="&#244;" horiz-adv-x="1182" d="M113 551q0 136 33.5 241.5t95.5 178t151.5 110t200.5 37.5q103 0 190 -37.5t150.5 -110t99 -178t35.5 -241.5q0 -137 -33.5 -243.5t-96 -179t-151.5 -110.5t-200 -38q-103 0 -190 38t-150.5 110.5t-99 179t-35.5 243.5zM253 1241h27q26 29 60 67t67.5 78.5t63 81 t45.5 74.5h192q16 -34 45.5 -74.5t63 -81t68 -78.5t59.5 -67h-27h-121q-51 34 -105 82.5t-106 103.5q-54 -55 -107 -103.5t-104 -82.5h-121zM301 551q0 -209 68.5 -314.5t222.5 -105.5t221.5 105.5t67.5 314.5t-68.5 312.5t-222.5 103.5t-221.5 -103.5t-67.5 -312.5z"></glyph><glyph unicode="&#245;" horiz-adv-x="1182" d="M113 551q0 136 33.5 241.5t95.5 178t151.5 110t200.5 37.5q103 0 190 -37.5t150.5 -110t99 -178t35.5 -241.5q0 -137 -33.5 -243.5t-96 -179t-151.5 -110.5t-200 -38q-103 0 -190 38t-150.5 110.5t-99 179t-35.5 243.5zM228 1241q5 60 21.5 109t43 83.5t63.5 53t83 18.5 q42 0 82.5 -17.5t78.5 -38.5t72.5 -38.5t63.5 -17.5q45 0 68 26t38 88h105q-5 -60 -21.5 -108.5t-43 -83t-63.5 -53.5t-83 -19q-40 0 -79.5 17.5t-77.5 39t-73 39t-67 17.5q-45 0 -69 -26.5t-38 -88.5h-104zM301 551q0 -209 68.5 -314.5t222.5 -105.5t221.5 105.5 t67.5 314.5t-68.5 312.5t-222.5 103.5t-221.5 -103.5t-67.5 -312.5z"></glyph><glyph unicode="&#246;" horiz-adv-x="1182" d="v -1302h 1917v 5802h 1123v 3334h 2689v 1926h -3512v -3677h 3160v 4469h 1271v 3935h 2973v 663h 1838v -1488h -1805v 4723h 5862M113 551q0 136 33.5 241.5t95.5 178t151.5 110t200.5 37.5q103 0 190 -37.5t150.5 -110t99 -178t35.5 -241.5q0 -137 -33.5 -243.5t-96 -179t-151.5 -110.5t-200 -38q-103 0 -190 38t-150.5 110.5t-99 179t-35.5 243.5zM300 1395q0 54 28 78t68 24q39 0 68 -24.5 t29 -77.5t-29 -78t-68 -25q-40 0 -68 25t-28 78zM301 551q0 -209 68.5 -314.5t222.5 -105.5t221.5 105.5t67.5 314.5t-68.5 312.5t-222.5 103.5t-221.5 -103.5t-67.5 -312.5zM675 1395q0 54 28 78t68 24q19 0 36.5 -6t30.5 -18.5t21 -31.5t8 -46q0 -53 -29 -78t-67 -25 q-40 0 -68 25t-28 78z"></glyph><glyph unicode="&#247;" d="v 3125h -4082v 2535h -2253v 1344h -2588M102 647v150h924v-150h-924zM449 373q0 35 9 58.5t24.5 38.5t36 21.5t44.5 6.5q23 0 44 -6.5t37 -21.5t25 -38.5t9 -58.5q0 -33 -9 -56.5t-25 -39t-37 -22.5t-44 -7q-24 0 -44.5 7t-36 22.5t-24.5 39t-9 56.5zM449 1071q0 35 9 58.5t24.5 38.5t36 21.5t44.5 6.5 q23 0 44 -6.5t37 -21.5t25 -38.5t9 -58.5q0 -33 -9 -56.5t-25 -39t-37 -22.5t-44 -7q-24 0 -44.5 7t-36 22.5t-24.5 39t-9 56.5z"></glyph><glyph unicode="&#248;" horiz-adv-x="1182" d="M115 551q0 136 33.5 241.5t95.5 178t151.5 110t200.5 37.5q63 0 119.5 -14.5t105.5 -42.5l68 108l131 -73l-80 -129q62 -73 96.5 -177.5t34.5 -238.5q0 -137 -33.5 -243.5t-96 -179t-151.5 -110.5t-200 -38q-125 0 -223 53l-68 -109l-131 74l80 131q-63 72 -98 178.5 t-35 243.5zM303 551q0 -84 9.5 -149.5t31.5 -116.5l397 647q-29 17 -66.5 26t-82.5 9q-154 0 -221.5 -103.5t-67.5 -312.5zM446 164q31 -17 67 -25t81 -8q154 0 221.5 105.5t67.5 314.5q0 159 -39 258z"></glyph><glyph unicode="&#249;" horiz-adv-x="1206" d="M164 381v717h182h-707q0 -130 53 -195t164 -65q81 0 136 26t88.5 76.5t48 124.5t14.5 170v570h182v-1098h-147l-27 147h-10q-25 -43 -59.5 -74.5t-75.5 -52t-87 -30.5t-94 -10q-91 0 -160 23t-115 72t-69.5 125t-23.5 181zM300 1548h21h219q16 -34 37.5 -74.5t44.5 -81 t47 -78.5t45 -67v-27h-120q-35 28 -76 69.5t-79.5 85.5t-70 84.5t-47.5 67.5zv 5366h -1678v 2608h 5016v 1671h -977v 5529h -3837"></glyph><glyph unicode="&#250;" horiz-adv-x="1206" d="M164 381h717h182h-707q0 -130 53 -195t164 -65q81 0 136 26t88.5 76.5t48 124.5t14.5 170v570h182v-1098h-147l-27 147h-10q-25 -43 -59.5 -74.5t-75.5 -52t-87 -30.5t-94 -10q-91 0 -160 23t-115 72t-69.5 125t-23.5 181zM489 1241v27q22 29 45.5 67t47 78.5t44.5 81 t37 74.5h219h-21q-16 -27 -47.5 -67.5t-70 -84.5t-79 -85.5t-75.5 -69.5h-121z"></glyph><glyph unicode="&#251;" horiz-adv-x="1206" d="M164 381v717h182h-707q0 -130 53 -195t164 -65q81 0 136 26t88.5 76.5t48 124.5t14.5 170h570h182v-1098h-147l-27 147h-10q-25 -43 -59.5 -74.5t-75.5 -52t-87 -30.5t-94 -10q-91 0 -160 23t-115 72t-69.5 125t-23.5 181zM266 1241h27q26 29 60 67t67.5 78.5t63 81 t45.5 74.5h192q16 -34 45.5 -74.5t63 -81t68 -78.5t59.5 -67h-27h-121q-51 34 -105 82.5t-106 103.5q-54 -55 -107 -103.5t-104 -82.5h-121z"></glyph><glyph unicode="&#252;" horiz-adv-x="1206" d="v -3619h 1511v -2685h 4218v -1886h 1196v -360h 5222v 2915h -2886v 5042h -2337v -3663h 5702v 2783h 5260v 2186h -4054M164 381h717h182h-707q0 -130 53 -195t164 -65q81 0 136 26t88.5 76.5t48 124.5t14.5 170v570h182v-1098h-147l-27 147h-10q-25 -43 -59.5 -74.5t-75.5 -52t-87 -30.5t-94 -10q-91 0 -160 23t-115 72t-69.5 125t-23.5 181zM309 1395q0 54 28 78t68 24q39 0 68 -24.5 t29 -77.5t-29 -78t-68 -25q-40 0 -68 25t-28 78zM684 1395q0 54 28 78t68 24q19 0 36.5 -6t30.5 -18.5t21 -31.5t8 -46q0 -53 -29 -78t-67 -25q-40 0 -68 25t-28 78z"></glyph><glyph unicode="&#253;" horiz-adv-x="1001" d="M10 1098h189l215 -613q14 -40 28.5 -84t27 -88t21.5 -85t13 -76h6q5 25 16 68t24.5 91.5t28 95.5t25.5 80l199 611h188l-434 -1241q-28 -81 -60.5 -145.5t-75.5 -109.5t-101 -69.5t-138 -24.5q-52 0 -90 5.5t-65 11.5h145q21 -5 53 -8.5t67 -3.5q48 0 83 11.5t61 33.5 t44.5 54t33.5 73l57 160zM407 1241h27q22 29 45.5 67t47 78.5t44.5 81t37 74.5h219h-21q-16 -27 -47.5 -67.5t-70 -84.5t-79 -85.5t-75.5 -69.5h-121z"></glyph><glyph unicode="&#254;" horiz-adv-x="1200" d="M174 -492h2048h182h-458l-8 -148h8q23 35 52 65.5t67.5 53t86.5 36t108 13.5q94 0 171 -36t131.5 -107.5t84.5 -177.5t30 -246q0 -141 -30 -247.5t-84.5 -178.5t-131.5 -108.5t-171 -36.5q-59 0 -107 13t-86.5 34.5t-68 50.5t-52.5 61h-12q3 -34 6 -65q2 -26 4 -53.5 t2 -43.5h-469h-182zM356 551q0 -101 13.5 -179.5t46 -132t86.5 -81t135 -27.5q135 0 198.5 109t63.5 313q0 208 -63.5 311t-200.5 103q-76 0 -128.5 -23t-85 -70t-48 -117t-17.5 -165v-41zv 2585h -2335v 5678h 1452v -3247h 4329"></glyph><glyph unicode="&#255;" horiz-adv-x="1001" d="v 5338h 5269v 3601h -1971v -3740h 1849v -1240h 748v -58h -320v -1440h 2267v 5358h -2641v -3046h -3540v 5001h -2462M10 1098h189l215 -613q14 -40 28.5 -84t27 -88t21.5 -85t13 -76h6q5 25 16 68t24.5 91.5t28 95.5t25.5 80l199 611h188l-434 -1241q-28 -81 -60.5 -145.5t-75.5 -109.5t-101 -69.5t-138 -24.5q-52 0 -90 5.5t-65 11.5v145q21 -5 53 -8.5t67 -3.5q48 0 83 11.5t61 33.5 t44.5 54t33.5 73l57 160zM228 1395q0 54 28 78t68 24q39 0 68 -24.5t29 -77.5t-29 -78t-68 -25q-40 0 -68 25t-28 78zM603 1395q0 54 28 78t68 24q19 0 36.5 -6t30.5 -18.5t21 -31.5t8 -46q0 -53 -29 -78t-67 -25q-40 0 -68 25t-28 78z"></glyph><glyph unicode="&#338;" horiz-adv-x="1823" d="v 4234h -1591v 3073h 5358v 3306h 4937v -1150h -3473v 1922h 5466v -1321h 3849M125 735q0 170 38 308.5t117 236.5t199 151.5t283 53.5q98 0 182 -23h756h-164h-574h-452h535h-162h-535h-520h574h-164h-758q-43 -9 -88.5 -14.5t-93.5 -5.5q-163 0 -282.5 54t-198 153t-116.5 238.5t-38 309.5zM322 733q0 -137 26 -246.5t79.5 -186t136 -117 t196.5 -40.5q52 0 97 9t83 24h1112q-38 16 -82.5 24.5t-95.5 8.5q-114 0 -197 -40.5t-137 -116t-80 -184.5t-26 -247z"></glyph><glyph unicode="&#339;" horiz-adv-x="1864" d="M113 551q0 136 33.5 241.5t95.5 178t151.5 110t200.5 37.5q121 0 218.5 -55.5t160.5 -161.5q60 105 152.5 161t209.5 56q99 0 178 -35.5t134 -100t84.5 -155t29.5 -200.5h-113h-692q5 -193 81.5 -284t227.5 -91q51 0 94.5 5t84 14.5t78.5 24t77 32.5h-162 q-40 -19 -78.5 -33t-79 -23t-84 -13t-94.5 -4q-130 0 -232 56t-167 165q-63 -109 -162 -165t-227 -56q-103 0 -190 38t-150.5 110.5t-99 179t-35.5 243.5zM301 551q0 -209 68.5 -314.5t222.5 -105.5q150 0 219.5 100.5t69.5 309.5q0 220 -70 323t-221 103 q-154 0 -221.5 -103.5t-67.5 -312.5zM1073 662h492q0 68 -13.5 124.5t-42 96.5t-72.5 62t-106 22q-114 0 -180.5 -78t-77.5 -227z"></glyph><glyph unicode="&#376;" horiz-adv-x="1079" d="v 1917h -173v 1958h -795v 3697h 2437v 5090h 1614v 1980h -1246v 5206h -4049M0 1462h203l336 -739l340 739h200l-446 -893h-569h-187h559zM257 1733q0 54 28 78t68 24q39 0 68 -24.5t29 -77.5t-29 -78t-68 -25q-40 0 -68 25t-28 78zM632 1733q0 54 28 78t68 24q19 0 36.5 -6t30.5 -18.5t21 -31.5t8 -46q0 -53 -29 -78t-67 -25q-40 0 -68 25t-28 78z "></glyph><glyph unicode="&#710;" horiz-adv-x="1182" d="v -2238h 4929v -1438h -2169v 470h 3101v -685h -1230v 3404h 2484v 4608h -517M258 1241h27q26 29 60 67t67.5 78.5t63 81t45.5 74.5h192q16 -34 45.5 -74.5t63 -81t68 -78.5t59.5 -67v-27h-121q-51 34 -105 82.5t-106 103.5q-54 -55 -107 -103.5t-104 -82.5h-121z"></glyph><glyph unicode="&#732;" horiz-adv-x="1182" d="M258 1241q5 60 21.5 109t43 83.5t63.5 53t83 18.5q42 0 82.5 -17.5t78.5 -38.5t72.5 -38.5t63.5 -17.5q45 0 68 26t38 88h105q-5 -60 -21.5 -108.5t-43 -83t-63.5 -53.5t-83 -19q-40 0 -79.5 17.5t-77.5 39t-73 39t-67 17.5q-45 0 -69 -26.5t-38 -88.5h-104z"></glyph><glyph unicode="&#8192;" horiz-adv-x="953"></glyph><glyph unicode="&#8193;" horiz-adv-x="1907"></glyph><glyph unicode="&#8194;" horiz-adv-x="953"></glyph><glyph unicode="&#8195;" horiz-adv-x="1907"></glyph><glyph unicode="&#8196;" horiz-adv-x="635"></glyph><glyph unicode="&#8197;" horiz-adv-x="476"></glyph><glyph unicode="&#8198;" horiz-adv-x="317"></glyph><glyph unicode="&#8199;" horiz-adv-x="317"></glyph><glyph unicode="&#8200;" horiz-adv-x="238"></glyph><glyph unicode="&#8201;" horiz-adv-x="381"></glyph><glyph unicode="&#8202;" horiz-adv-x="105"></glyph><glyph unicode="&#8208;" horiz-adv-x="659" d="v 4251h -2919v 1533h 5948v 1318h 1751v 5724h 5377v 1102h -1837v 4787h -1819v -2384h -2368v -2623h 1258v -809h -3465v 1813h 5273M82 465v168h496v-168h-496z"></glyph><glyph unicode="&#8209;" horiz-adv-x="659" d="v -3311h -3888v -3947h -959v 2529h 5936v -3523h 922v 5549h 2263v -2317h 2342v 1555h 4134v 3223h 5360v 5510h 5947M82 465h168h496v-168h-496z"></glyph><glyph unicode="&#8210;" horiz-adv-x="659" d="M82 465h168h496v-168h-496zv 1499h 5329v 4971h 5994v 49h 3571v 4129h 6110v -1447h -3426v -1954h 4707v -1201h 524"></glyph><glyph unicode="&#8211;" horiz-adv-x="1024" d="M82 465h168h860v-168h-860z"></glyph><glyph unicode="&#8212;" horiz-adv-x="2048" d="M82 465v168h1884v-168h-1884z"></glyph><glyph unicode="&#8216;" horiz-adv-x="358" d="v 3353h 4117v 1980h 1992v 1784h 1179v -616h 1646v 2025h 4547v -2725h 91M23 983q14 54 33.5 115t42.5 123t49 123.5t51 117.5h137q-15 -61 -29.5 -127t-27.5 -131.5t-24 -127.5t-19 -115h-199z"></glyph><glyph unicode="&#8217;" horiz-adv-x="358" d="M23 961q14 60 28.5 126t28 132t24.5 128t19 115h199l14 -22q-14 -55 -33.5 -115.5t-43 -123t-49 -123.5t-50.5 -117h-137zv 1474h -3314v 1509h 5796v 4820h 1360v -3674h -3274v 1888h -1887v 253h -3711v 1729h 316v 2137h 2655"></glyph><glyph unicode="&#8218;" horiz-adv-x="512" d="M63 -264q15 61 29.5 127t28 131.5t24.5 128t19 115.5h198l15 -23q-14 -54 -33.5 -115t-43 -123t-49 -123.5t-50.5 -117.5h-138z"></glyph><glyph unicode="&#8220;" horiz-adv-x="743" d="M23 983q14 54 33.5 115t42.5 123t49 123.5t51 117.5h137q-15 -61 -29.5 -127t-27.5 -131.5t-24 -127.5t-19 -115h-199zM408 983q14 54 33.5 115t42.5 123t49 123.5t51 117.5h137q-15 -61 -29.5 -127t-27.5 -131.5t-24 -127.5t-19 -115h-199z"></glyph><glyph unicode="&#8221;" horiz-adv-x="743" d="M23 961q14 60 28.5 126t28 132t24.5 128t19 115h199l14 -22q-14 -55 -33.5 -115.5t-43 -123t-49 -123.5t-50.5 -117h-137zM408 961q14 60 28.5 126t28 132t24.5 128t19 115h199l14 -22q-14 -55 -33.5 -115.5t-43 -123t-49 -123.5t-50.5 -117h-137z"></glyph><glyph unicode="&#8222;" horiz-adv-x="897" d="v 2752h -1322v -800h -660v -1375h 4312v -3971h 3791v 408h -3842v -637h -3415M63 -264q15 61 29.5 127t28 131.5t24.5 128t19 115.5h198l15 -23q-14 -54 -33.5 -115t-43 -123t-49 -123.5t-50.5 -117.5h-138zM449 -264q14 61 28.5 127t28 131.5t24.5 128t19 115.5h199l14 -23q-14 -54 -33.5 -115t-43 -123t-49 -123.5t-50.5 -117.5h-137z"></glyph><glyph unicode="&#8226;" horiz-adv-x="770" d="M150 748q0 71 18 121t49.5 81.5t74.5 45.5t93 14q49 0 92 -14t75 -45.5t50.5 -81.5t18.5 -121q0 -70 -18.5 -120t-50.5 -81.5t-75 -46.5t-92 -15q-50 0 -93 15t-74.5 46.5t-49.5 81.5t-18 120z"></glyph><glyph unicode="&#8230;" horiz-adv-x="1647" d="v 5638h 4352v -1755h -2680v -2462h 1143v 1885h -3734v -3343h -1883v 5239h -518v 2381h -2740M147 111q0 38 10 64.5t27 43t40 24t50 7.5q26 0 49.5 -7.5t40.5 -24t27 -43t10 -64.5q0 -37 -10 -63.5t-27 -43.5t-40.5 -25t-49.5 -8q-27 0 -50 8t-40 25t-27 43.5t-10 63.5zM696 111q0 38 10 64.5t27 43t40 24t50 7.5q26 0 49.5 -7.5t40.5 -24t27 -43t10 -64.5 q0 -37 -10 -63.5t-27 -43.5t-40.5 -25t-49.5 -8q-27 0 -50 8t-40 25t-27 43.5t-10 63.5zM1245 111q0 38 9.5 64.5t27 43t40.5 24t50 7.5q26 0 49.5 -7.5t40.5 -24t27 -43t10 -64.5q0 -37 -10 -63.5t-27 -43.5t-40.5 -25t-49.5 -8q-54 0 -90.5 33t-36.5 107z"></glyph><glyph unicode="&#8239;" horiz-adv-x="381"></glyph><glyph unicode="&#8249;" horiz-adv-x="590" d="M82 526h27l309 414l117 -78l-238 -348l238 -348l-117 -78zv 5816h 5548v 1997h 1939v 3089h 3940v 6092h 1497v -497h 4307v 5126h 4184v 238h 6132"></glyph><glyph unicode="&#8250;" horiz-adv-x="590" d="M82 193l237 348l-237 348l117 78l309 -414v-27l-309 -411zv 932h -2717v 4507h 850v -3007h -2953"></glyph><glyph unicode="&#8287;" horiz-adv-x="476"></glyph><glyph unicode="&#8364;" d="M63 502v137h148q-2 23 -2 38h44q0 22 1 45t1 31h-148h137h160q18 125 62 226t111.5 173t159.5 111t206 39q97 0 177 -21.5t159 -70.5l-80 -146q-51 31 -110.5 52.5t-131.5 21.5q-69 0 -128 -26t-106 -75.5t-80.5 -121t-51.5 -162.5h432h-137h-447q0 -15 -1 -29 q-1 -12 -1 -25h-22h-39.5t2 -42.5h385h-137h-366q34 -175 126.5 -267t241.5 -92q75 0 142.5 16t126.5 42v-162q-59 -28 -125.5 -43.5t-157.5 -15.5q-115 0 -206 36.5t-158.5 104t-111.5 164t-65 217.5h-164z"></glyph><glyph unicode="&#8482;" horiz-adv-x="1534" d="M37 1354h108h522h-108h-199h-613h-127v613h-196zM625 741h721h186l180 -551l191 551h178v-721h-127h428q0 9 0.5 24t1 32.5l1 35t1.5 29.5h-6l-195 -549h-100l-186 549h-7q1 -16 2 -33t1.5 -32t1 -27t0.5 -18v-439h-123z"></glyph><glyph unicode="&#57344;" horiz-adv-x="1100" d="v -1606h 5462v 3778h 3778v 5548h 3102v -3280h -1978v -1184h -3791v 1659h 2211M0 0h1100h1100h-1100h-1100z"></glyph><glyph unicode="&#64257;" horiz-adv-x="1204" d="M29 961v75l194 68h96q0 107 22.5 177.5t65 112.5t104.5 59.5t140 17.5q59 0 108.5 -11.5t88.5 -25.5l-47 -141q-31 11 -67.5 19.5t-76.5 8.5t-69 -9.5t-48 -33.5t-28.5 -65.5t-9.5 -106.5h-104h245h-137h-245h-961h-183h961h-194zM834 1395q0 60 30.5 87t75.5 27 q22 0 41.5 -6.5t34 -20.5t23 -35.5t8.5 -51.5q0 -58 -31.5 -86.5t-75.5 -28.5q-45 0 -75.5 28t-30.5 87zM848 0v1098h182h-1098h-182zv 5039h -3664v -1301h -3697v 5393h 3106v 5360h 1652v -1220h -3328v 986h 840v -618h -1279v 3760h 4984"></glyph><glyph unicode="&#64258;" horiz-adv-x="1204" d="v 3540h -1954M29 961h75l194 68h96q0 107 22.5 177.5t65 112.5t104.5 59.5t140 17.5q59 0 108.5 -11.5t88.5 -25.5l-47 -141q-31 11 -67.5 19.5t-76.5 8.5t-69 -9.5t-48 -33.5t-28.5 -65.5t-9.5 -106.5v-104h245h-137h-245h-961h-183h961h-194zM848 0h1556h182h-1556h-182z"></glyph><glyph unicode="&#64259;" horiz-adv-x="1878" d="M29 961v75l194 68v96q0 107 22.5 177.5t65 112.5t104.5 59.5t140 17.5q59 0 108.5 -11.5t88.5 -25.5l-47 -141q-31 11 -67.5 19.5t-76.5 8.5t-69 -9.5t-48 -33.5t-28.5 -65.5t-9.5 -106.5h-104h245h-137h-245h-961h-183h961h-194zM703 961v75l194 68v96q0 107 22.5 177.5 t65 112.5t104.5 59.5t140 17.5q59 0 108.5 -11.5t88.5 -25.5l-47 -141q-31 11 -67.5 19.5t-76.5 8.5t-69 -9.5t-48 -33.5t-28.5 -65.5t-9.5 -106.5h-104h245h-137h-245h-961h-183h961h-194zM1508 1395q0 60 30.5 87t75.5 27q22 0 41.5 -6.5t34 -20.5t23 -35.5t8.5 -51.5 q0 -58 -31.5 -86.5t-75.5 -28.5q-45 0 -75.5 28t-30.5 87zM1522 0v1098h182v-1098h-182zv 4272h 3550v 4518h 2675"></glyph><glyph unicode="&#64260;" horiz-adv-x="1878" d="M29 961h75l194 68v96q0 107 22.5 177.5t65 112.5t104.5 59.5t140 17.5q59 0 108.5 -11.5t88.5 -25.5l-47 -141q-31 11 -67.5 19.5t-76.5 8.5t-69 -9.5t-48 -33.5t-28.5 -65.5t-9.5 -106.5h-104h245h-137h-245h-961h-183h961h-194zM703 961h75l194 68h96q0 107 22.5 177.5 t65 112.5t104.5 59.5t140 17.5q59 0 108.5 -11.5t88.5 -25.5l-47 -141q-31 11 -67.5 19.5t-76.5 8.5t-69 -9.5t-48 -33.5t-28.5 -65.5t-9.5 -106.5v-104h245h-137h-245h-961h-183h961h-194zM1522 0h1556h182v-1556h-182zv -1469h -117v 2807h -821v 5515h 2712v 1078h -3031v 5293h 116v 3521h 4232v 2879h -3957"></glyph></font>
</defs>
</svg>
